<?xml version="1.0" standalone="no"?>
<!DOCTYPE svg PUBLIC "-//W3C//DTD SVG 1.1//EN" "http://www.w3.org/Graphics/SVG/1.1/DTD/svg11.dtd" >
<svg xmlns="http://www.w3.org/2000/svg">
<metadata></metadata>
<defs>
<font id="trade_gothic_lt_stdextended" horiz-adv-x="1366" >
<font-face units-per-em="2048" ascent="1489" descent="-559" />
<missing-glyph horiz-adv-x="739" />
<glyph horiz-adv-x="2048" />
<glyph horiz-adv-x="2048" />
<glyph unicode="&#xd;" horiz-adv-x="2048" />
<glyph unicode=" "  horiz-adv-x="739" />
<glyph unicode="&#x09;" horiz-adv-x="739" />
<glyph unicode="&#xa0;" horiz-adv-x="739" />
<glyph unicode="!" horiz-adv-x="681" d="M225 1489h232l-43 -1047h-140zM236 0v238h210v-238h-210z" />
<glyph unicode="&#x22;" horiz-adv-x="1024" d="M291 965v524h135v-524h-135zM598 965v524h135v-524h-135z" />
<glyph unicode="#" horiz-adv-x="1478" d="M223 463v123h238l41 317h-219v123h237l62 463h123l-62 -463h270l62 463h123l-62 -463h219v-123h-237l-41 -317h219v-123h-238l-61 -463h-123l62 463h-271l-61 -463h-123l61 463h-219zM584 586h270l41 317h-270z" />
<glyph unicode="$" horiz-adv-x="1478" d="M70 281l125 112q180 -215 473 -241v528q-288 51 -418.5 143.5t-130.5 245.5q0 86 32.5 155t85.5 113.5t125.5 74t149.5 42t160 12.5v211h129v-211q91 -3 173 -22t135.5 -41.5t109.5 -60.5t81 -60t64 -59l-117 -117q-61 63 -117 104t-115 62t-102 29t-112 14v-500 q200 -33 291 -62q303 -97 303 -337q0 -381 -594 -416v-295h-137v295q-47 5 -68.5 8t-73 12t-85 20.5t-85.5 32.5t-93.5 48t-92 68t-96.5 92zM279 1090q0 -98 87.5 -153t301.5 -93v471q-73 0 -139 -12.5t-123.5 -38t-92 -70.5t-34.5 -104zM801 152q81 4 151 17.5t137 40 t106.5 74.5t39.5 113q0 50 -18.5 87.5t-49 62.5t-89.5 45t-118.5 33t-158.5 30v-503z" />
<glyph unicode="%" horiz-adv-x="2048" d="M164 1157q0 152 108 260.5t260 108.5t260.5 -108.5t108.5 -260.5t-108.5 -260.5t-260.5 -108.5t-260 108.5t-108 260.5zM305 1157q0 -94 66.5 -160.5t160.5 -66.5t161 66.5t67 160.5t-67 160.5t-161 66.5t-160.5 -66.5t-66.5 -160.5zM535 -37l868 1563h123l-869 -1563 h-122zM1147 332q0 152 108.5 260t260.5 108t260 -108t108 -260t-108 -260.5t-260 -108.5t-260.5 108.5t-108.5 260.5zM1288 332q0 -94 67 -161t161 -67t160.5 67t66.5 161t-66.5 160.5t-160.5 66.5t-161 -66.5t-67 -160.5z" />
<glyph unicode="&#x26;" horiz-adv-x="1933" d="M72 414q0 81 28 150.5t73 120t110 92.5t131 69.5t143 48.5q-125 147 -125 317q0 128 95 221t272 93q176 0 285.5 -84.5t109.5 -243.5q0 -75 -25 -138.5t-60.5 -104t-85 -72t-88.5 -47.5t-81 -27q102 -114 209 -212.5t266 -229.5q86 74 146 149.5t90.5 131.5t79.5 161 l145 -72q-98 -238 -328 -461q119 -74 204 -106.5t206 -40.5v-166q-159 4 -290.5 52.5t-260.5 146.5q-148 -85 -222 -116q-200 -83 -460 -83q-272 0 -419.5 117t-147.5 334zM244 410q0 -74 30.5 -129.5t74.5 -86t104.5 -49.5t109.5 -24.5t101 -5.5q139 0 276.5 43t239.5 106 q-135 108 -281 252t-235 244q-45 -14 -68.5 -21.5t-69 -24t-72 -30.5t-64 -35.5t-60 -45t-44.5 -52.5t-32 -65t-10 -76zM598 1198q0 -64 35.5 -126.5t103.5 -133.5q38 12 58.5 18.5t56.5 21t56 27.5t46.5 34.5t40 44.5t23.5 55.5t10 70.5q0 40 -15 71.5t-38 50t-53 31 t-57.5 17t-53.5 4.5q-94 0 -153.5 -50t-59.5 -136z" />
<glyph unicode="'" horiz-adv-x="569" d="M217 965v524h135v-524h-135z" />
<glyph unicode="(" horiz-adv-x="681" d="M117 682q0 240 76.5 438t267.5 406h186q-70 -83 -111.5 -136.5t-88.5 -122.5t-73 -126.5t-49 -130t-32.5 -152.5t-9.5 -176t9.5 -176t32.5 -152.5t49 -130t73 -126.5t88.5 -122.5t111.5 -136.5h-186q-191 208 -267.5 406t-76.5 438z" />
<glyph unicode=")" horiz-adv-x="681" d="M35 -162q70 83 111.5 136.5t88.5 122.5t73 126.5t49 130t32.5 152.5t9.5 176t-9.5 176t-32.5 152.5t-49 130t-73 126.5t-88.5 122.5t-111.5 136.5h186q191 -208 267.5 -406t76.5 -438t-76.5 -438t-267.5 -406h-186z" />
<glyph unicode="*" horiz-adv-x="1024" d="M156 1159l41 158l256 -117l12 10l-33 279h160l-33 -279l12 -10l256 117l41 -158l-282 -47l-6 -14l196 -213l-125 -92l-133 258h-12l-133 -258l-125 92l196 213l-6 14z" />
<glyph unicode="+" horiz-adv-x="1228" d="M96 457v123h457v456h123v-456h457v-123h-457v-457h-123v457h-457z" />
<glyph unicode="," horiz-adv-x="739" d="M246 -324l112 324h-94v238h211v-238l-129 -324h-100z" />
<glyph unicode="-" horiz-adv-x="681" d="M63 471v152h555v-152h-555z" />
<glyph unicode="." horiz-adv-x="739" d="M264 0v238h211v-238h-211z" />
<glyph unicode="/" horiz-adv-x="569" d="M-23 -37l455 1563h143l-454 -1563h-144z" />
<glyph unicode="0" horiz-adv-x="1478" d="M66 739q0 135 26 249.5t68 193.5t100.5 141.5t119 99.5t128 61t123 33t108.5 9t108.5 -9t123 -33t128.5 -61t119.5 -99.5t100.5 -141.5t68 -193.5t26 -249.5q0 -161 -38 -292.5t-102.5 -220t-151.5 -149t-182.5 -87.5t-199.5 -27t-199.5 27t-182.5 87.5t-151 149 t-102 220t-38 292.5zM231 750q0 -151 41 -273t111 -200.5t161.5 -120t194.5 -41.5t194.5 41.5t161.5 120t111 200.5t41 273q0 99 -18.5 189.5t-59 170t-99 138t-143.5 92.5t-188 34t-188 -34t-143.5 -92.5t-99 -138t-59 -170t-18.5 -189.5z" />
<glyph unicode="1" horiz-adv-x="1478" d="M360 1298v123q158 21 373 105h117v-1374h297v-152h-762v152h299v1169z" />
<glyph unicode="2" horiz-adv-x="1478" d="M88 0v137q19 37 37.5 67.5t62.5 84.5t97 101t140 106.5t193 111.5q55 28 123.5 59.5t114 51.5t98 46t86 47.5t67 50.5t52 59.5t30 70.5t11.5 88q0 128 -114 210.5t-312 82.5q-101 0 -184 -22t-136 -52.5t-96 -77t-64.5 -82.5t-41.5 -81l-148 69q17 50 46.5 100t84 105.5 t124 97t172.5 68.5t223 27q307 0 462.5 -117.5t155.5 -318.5q0 -75 -18.5 -138.5t-52.5 -111t-77 -86.5t-98.5 -70.5t-110.5 -57.5t-118 -53q-4 -1 -6 -2q-74 -33 -113 -50.5t-100 -47t-96.5 -51t-83.5 -53t-82.5 -62t-72 -70.5t-71.5 -85h1100v-152h-1284z" />
<glyph unicode="3" horiz-adv-x="1478" d="M37 244l127 110q114 -122 249 -180.5t310 -58.5q60 0 119.5 8t124.5 30.5t114 56t81 90t32 128.5q0 146 -120 215.5t-374 69.5h-274v151h213q506 0 506 250q0 66 -37.5 117.5t-100 82t-135.5 45.5t-151 15q-171 0 -298.5 -56t-201.5 -147l-127 113q52 54 100.5 91t123 75 t177 57t232.5 19q79 0 156 -11.5t156 -40t138 -72t96.5 -113t37.5 -156.5q0 -64 -18.5 -117.5t-41.5 -85.5t-63.5 -62t-62.5 -41.5t-62 -29.5q48 -16 84.5 -33t78.5 -47t69.5 -66.5t46 -92.5t18.5 -124q0 -104 -36 -185.5t-97 -134.5t-146 -87.5t-177.5 -49t-198.5 -14.5 q-80 0 -153 10.5t-127.5 25t-109 40.5t-89 46.5t-75.5 54t-61 52.5t-53 52z" />
<glyph unicode="4" horiz-adv-x="1478" d="M33 332v147l905 1010h238v-1006h241v-151h-241v-369h-166v369h-977zM223 483h787v877z" />
<glyph unicode="5" horiz-adv-x="1478" d="M80 240l129 112q36 -45 59 -69.5t70 -61.5t95.5 -56.5t125.5 -34.5t170 -15q242 0 369 102t127 275q0 88 -42.5 159t-111.5 113.5t-151 65t-168 22.5q-149 0 -273.5 -51t-195.5 -156l-136 39l58 805h1073v-152h-934l-37 -473q191 140 469 140q127 0 239.5 -35t197.5 -100 t134.5 -163.5t49.5 -218.5q0 -106 -38.5 -198t-115 -166t-203.5 -117t-290 -43q-86 0 -161.5 9.5t-129.5 22t-108 38t-85 43.5t-72.5 54t-58.5 53t-55 57z" />
<glyph unicode="6" horiz-adv-x="1478" d="M61 717q0 158 39.5 291.5t108.5 227.5t162.5 160.5t201 98t224.5 31.5q187 0 303 -43.5t231 -136.5l-104 -127q-101 85 -202 120t-243 35q-103 0 -202.5 -45t-180 -125.5t-128.5 -206t-44 -274.5q133 112 267 170.5t311 58.5q147 0 265 -38.5t193 -105t114.5 -152.5 t39.5 -185q0 -107 -35.5 -193.5t-96 -144.5t-144 -97t-176 -56t-195.5 -17q-154 0 -284.5 51.5t-224.5 146.5t-147 237.5t-53 318.5zM250 543q13 -105 64 -188.5t125 -134.5t161 -78t178 -27q132 0 236.5 38t167.5 116.5t63 187.5q0 154 -127 249t-321 95q-317 0 -547 -258z " />
<glyph unicode="7" horiz-adv-x="1478" d="M115 1337v152h1255v-100l-866 -1426h-197l850 1374h-1042z" />
<glyph unicode="8" horiz-adv-x="1478" d="M70 414q0 68 25.5 126.5t61.5 96.5t83 69t83.5 46t69.5 24v4q-82 32 -135.5 71t-81.5 87t-38.5 98t-10.5 117q0 49 18.5 98t64.5 99.5t113.5 89t174.5 62.5t239 24q123 0 229 -22t194 -67.5t139 -124.5t51 -184q0 -45 -10.5 -84.5t-24.5 -68t-39.5 -55.5t-45.5 -43.5 t-53.5 -35t-51 -26.5t-50.5 -22q62 -25 107 -48.5t90 -58t73.5 -73.5t46 -93t17.5 -119q0 -101 -40.5 -179t-105 -126t-154.5 -79t-180.5 -42.5t-191.5 -11.5q-83 0 -159.5 9t-153 29t-139.5 55.5t-112 84t-76 118.5t-27 155zM236 406q0 -57 25 -104t67.5 -77.5t93.5 -53 t109.5 -34t108.5 -17t97 -5.5q66 0 131 7.5t134.5 27t121.5 50t85.5 81t33.5 114.5q0 71 -43.5 128.5t-104.5 89.5t-136.5 54.5t-129 30t-92.5 9.5q-35 -4 -49.5 -5.5t-61 -8t-73.5 -13t-73 -19.5t-75 -28t-64.5 -38t-56 -49.5t-34.5 -62.5t-14 -77zM293 1114 q0 -32 10 -58.5t31.5 -49t37 -34.5t44.5 -32q40 -26 155 -54t166 -28q53 6 105.5 15.5t116.5 30t112 47.5t80.5 69.5t32.5 93.5q0 62 -30 109.5t-75.5 75t-107.5 45.5t-118.5 24t-115.5 6q-444 0 -444 -260z" />
<glyph unicode="9" horiz-adv-x="1478" d="M61 1018q0 107 35.5 193.5t96 144.5t144 97t176.5 56t196 17q154 0 284 -51.5t224.5 -146.5t147 -237.5t52.5 -318.5q0 -158 -39.5 -291.5t-108.5 -227.5t-162 -160.5t-200.5 -98t-224.5 -31.5q-187 0 -304 43.5t-231 136.5l105 127q101 -85 201.5 -120t242.5 -35 q103 0 202.5 45t180 125.5t128.5 206t44 274.5q-133 -112 -266.5 -170.5t-310.5 -58.5q-147 0 -265 38.5t-193 105t-115 152.5t-40 185zM233 1032q0 -154 127.5 -249t321.5 -95q317 0 547 258q-13 104 -64 188t-125.5 135t-161.5 78t-178 27q-132 0 -236.5 -38 t-167.5 -116.5t-63 -187.5z" />
<glyph unicode=":" horiz-adv-x="739" d="M264 0v238h211v-238h-211zM264 616v238h211v-238h-211z" />
<glyph unicode=";" horiz-adv-x="739" d="M246 -324l112 324h-94v238h211v-238l-129 -324h-100zM264 616v238h211v-238h-211z" />
<glyph unicode="&#x3c;" horiz-adv-x="1228" d="M96 461v114l1037 478v-135l-871 -400l871 -399v-135z" />
<glyph unicode="=" horiz-adv-x="1228" d="M96 258v123h1037v-123h-1037zM96 655v123h1037v-123h-1037z" />
<glyph unicode="&#x3e;" horiz-adv-x="1228" d="M96 -16v135l871 399l-871 400v135l1037 -478v-114z" />
<glyph unicode="?" horiz-adv-x="1251" d="M55 1217q52 78 102.5 130.5t120.5 95.5t161.5 63t211.5 20q75 0 147.5 -12.5t141.5 -41t121 -70.5t83.5 -105.5t31.5 -141.5q0 -47 -6.5 -86t-15 -68t-29 -57.5t-34.5 -45t-47 -41t-50.5 -36t-60.5 -38.5l-24 -15q-59 -31 -92.5 -50t-66.5 -43t-48.5 -43t-28.5 -47.5 t-17.5 -59.5t-6.5 -76h-151q-2 72 9.5 127.5t31.5 96t62 79.5t84.5 68.5t115.5 72.5q57 32 86 51t60.5 49t44 66t12.5 84q0 104 -96.5 167.5t-258.5 63.5q-307 0 -448 -241zM469 0v238h211v-238h-211z" />
<glyph unicode="@" horiz-adv-x="1638" d="M37 743q0 160 65 305t175.5 249.5t262.5 166.5t320 62q152 0 288.5 -49t236.5 -134.5t158.5 -207.5t58.5 -261q0 -117 -47 -229.5t-120 -192t-163.5 -128t-175.5 -48.5q-64 0 -104.5 37.5t-39.5 108.5h-4q-136 -146 -299 -146q-134 0 -210.5 89.5t-76.5 222.5 q0 109 39.5 219t106.5 199t167 144.5t212 55.5q176 0 237 -176h6l52 139h129l-217 -600q-29 -93 -29 -125q0 -55 63 -55q33 0 77 21.5t92 66.5t88.5 104.5t67 144.5t26.5 177q0 114 -52.5 211.5t-139.5 162.5t-198 101.5t-229 36.5q-145 0 -275.5 -53.5t-223 -144.5 t-147 -214.5t-54.5 -259.5q0 -186 95 -340t256 -241.5t349 -87.5q175 0 332.5 77t234.5 197h140q-103 -177 -296.5 -281t-410.5 -104q-172 0 -325.5 62.5t-262.5 167.5t-172 248.5t-63 301.5zM498 598q0 -199 168 -199q74 0 145 50.5t120 126t79 162t30 159.5 q0 186 -166 186q-67 0 -128 -33t-105 -85.5t-77 -117t-49.5 -129.5t-16.5 -120z" />
<glyph unicode="A" horiz-adv-x="1820" d="M35 0l766 1489h221l764 -1489h-203l-192 387h-961l-194 -387h-201zM512 547h799l-400 801z" />
<glyph unicode="B" horiz-adv-x="1820" d="M195 0v1489h862q41 0 65.5 -0.5t75 -4t85 -10t84 -20t83.5 -32t71.5 -48.5t60 -68t37.5 -90.5t15 -115.5q0 -59 -16 -107.5t-35.5 -78t-56 -57.5t-58.5 -40t-61 -31q28 -12 44.5 -19.5t49.5 -26.5t54.5 -37t48.5 -48t43 -62.5t27.5 -78t11.5 -96.5q0 -65 -15.5 -119.5 t-40.5 -95t-65.5 -72t-81 -52.5t-97 -36.5t-103.5 -23.5t-111 -12.5t-109 -5.5t-107 -1h-761zM375 160h698q72 0 128.5 5.5t115 22.5t97 45t63 76.5t24.5 114.5q0 148 -106 213t-301 65h-719v-542zM375 854h633q70 0 127.5 5t119 21t103.5 42t69 71t27 105q0 50 -15.5 88 t-37 63.5t-65 42.5t-77.5 26t-97.5 13.5t-102.5 5t-113 0.5h-571v-483z" />
<glyph unicode="C" horiz-adv-x="1820" d="M94 741q0 251 108 429.5t297.5 267t442.5 88.5q123 0 238 -24.5t219.5 -74t188.5 -133.5t132 -194l-155 -72q-51 119 -144.5 197.5t-212 113.5t-264.5 35q-320 0 -492.5 -169t-172.5 -486q0 -129 44 -237.5t127.5 -188.5t214.5 -125t296 -45q432 0 622 350l160 -78 q-116 -225 -317 -328.5t-482 -103.5q-211 0 -375.5 60.5t-267 167t-155 246t-52.5 304.5z" />
<glyph unicode="D" horiz-adv-x="1820" d="M195 0v1489h735q175 0 320 -46.5t251.5 -136t165.5 -229.5t59 -319q0 -126 -27 -232.5t-73.5 -183t-112.5 -137t-139.5 -98.5t-160.5 -62.5t-169.5 -34.5t-171.5 -10h-677zM375 160h526q33 0 61.5 1.5t78.5 7.5t92 17t95 33t95.5 52t84.5 76.5t70.5 104t46 137.5 t17.5 175q0 126 -35 225.5t-92.5 162t-138.5 103.5t-165.5 57.5t-180.5 16.5h-555v-1169z" />
<glyph unicode="E" horiz-adv-x="1593" d="M195 0v1489h1327v-160h-1147v-475h958v-160h-958v-534h1171v-160h-1351z" />
<glyph unicode="F" horiz-adv-x="1593" d="M195 0v1489h1359v-160h-1179v-471h995v-160h-995v-698h-180z" />
<glyph unicode="G" horiz-adv-x="1820" d="M94 741q0 251 108 429.5t297.5 267t442.5 88.5q263 0 458 -110t279 -300l-151 -80q-42 95 -112 164t-153.5 105.5t-164 52.5t-162.5 16q-315 0 -486 -169t-171 -486q0 -129 43.5 -237.5t126.5 -188.5t212 -125t291 -45q105 0 202.5 26t181.5 77.5t138.5 138.5t63.5 198 h-604v160h768v-735h-160v217q-42 -50 -90 -88.5t-119 -75.5t-170 -57.5t-219 -20.5q-211 0 -375.5 60.5t-267 167t-155 246t-52.5 304.5z" />
<glyph unicode="H" horiz-adv-x="1933" d="M201 0v1489h180v-631h1171v631h181v-1489h-181v698h-1171v-698h-180z" />
<glyph unicode="I" horiz-adv-x="569" d="M195 0v1489h180v-1489h-180z" />
<glyph unicode="J" horiz-adv-x="1251" d="M14 287l160 80q11 -26 17.5 -40.5t23 -44t32.5 -47.5t43.5 -42t58 -37t74 -23t93.5 -10q166 0 263 104.5t98 288.5v973h180v-965q0 -129 -35.5 -230t-91.5 -162t-131.5 -100.5t-147.5 -54t-149 -14.5q-365 0 -488 324z" />
<glyph unicode="K" horiz-adv-x="1820" d="M195 0v1489h180v-793l1016 793h276l-727 -561l836 -928h-244l-733 819l-424 -332v-487h-180z" />
<glyph unicode="L" horiz-adv-x="1593" d="M195 0v1489h180v-1329h1175v-160h-1355z" />
<glyph unicode="M" horiz-adv-x="2048" d="M195 0v1489h278l551 -1253l551 1253h278v-1489h-165v1329h-5l-581 -1329h-152l-585 1329h-5v-1329h-165z" />
<glyph unicode="N" horiz-adv-x="1933" d="M195 0v1489h256l1108 -1225v1225h180v-1489h-180l-1192 1329v-1329h-172z" />
<glyph unicode="O" horiz-adv-x="1933" d="M94 735q0 183 65.5 332.5t181.5 249.5t276.5 154.5t349.5 54.5t349.5 -54.5t276.5 -154.5t181 -249.5t65 -332.5q0 -153 -49.5 -282t-133.5 -218t-196.5 -151.5t-237 -91.5t-255.5 -29t-255.5 29t-237 91.5t-197 151.5t-134 218t-49.5 282zM279 768q0 -132 36.5 -240.5 t100 -182.5t151 -125t188 -74t212.5 -23q111 0 210.5 23t187.5 74t152 125t101 182.5t37 240.5q0 125 -47.5 235t-134 192.5t-217.5 130.5t-289 48t-289 -48t-217.5 -130.5t-134 -192.5t-47.5 -235z" />
<glyph unicode="P" horiz-adv-x="1703" d="M195 0v1489h872q575 0 575 -426q0 -428 -575 -428h-692v-635h-180zM375 795h645q233 0 341.5 59.5t108.5 206.5q0 149 -108.5 208.5t-341.5 59.5h-645v-534z" />
<glyph unicode="Q" horiz-adv-x="1933" d="M94 735q0 183 65.5 332.5t181.5 249.5t276.5 154.5t349.5 54.5t349.5 -54.5t276.5 -154.5t181 -249.5t65 -332.5q0 -219 -94.5 -379.5t-259.5 -259.5q24 -27 45 -43.5t60 -36.5t99 -29.5t142 -9.5v-170q-181 0 -285 45t-215 175q-171 -64 -364 -64q-131 0 -255.5 29 t-237 91.5t-197 151.5t-134 218t-49.5 282zM279 768q0 -132 36.5 -240.5t100 -182.5t151 -125t188 -74t212.5 -23q147 0 268 39q-50 82 -102 124t-142 64v172q144 -27 229 -89t160 -204q130 75 202.5 210.5t72.5 328.5q0 125 -47.5 235t-134 192.5t-217.5 130.5t-289 48 t-289 -48t-217.5 -130.5t-134 -192.5t-47.5 -235z" />
<glyph unicode="R" horiz-adv-x="1820" d="M195 0v1489h860q57 0 108 -3.5t111.5 -15t111 -30t99 -50.5t81.5 -74.5t53.5 -104.5t20.5 -138q0 -89 -32 -160.5t-81 -115.5t-113.5 -74.5t-124 -43t-118.5 -15.5l492 -664h-223l-479 659h-586v-659h-180zM375 819h639q85 0 148 5.5t123.5 21.5t98.5 44t61 74.5 t23 110.5q0 63 -23 109.5t-61 74t-98.5 43.5t-123.5 21.5t-148 5.5h-639v-510z" />
<glyph unicode="S" horiz-adv-x="1703" d="M70 307l139 119q25 -33 41.5 -53.5t52 -56t68.5 -58.5t87.5 -51t113 -44.5t140 -28t173.5 -11.5q60 0 120 6t122 19.5t115 37t95 55t66 77.5t24 102q0 72 -44.5 121.5t-119.5 75t-172.5 41t-205 25.5t-215 21.5t-205 36t-172.5 63.5t-119.5 108.5t-44.5 166.5 q0 116 51.5 203t146 140t219.5 78.5t281 25.5q141 0 265.5 -27t214.5 -72.5t153.5 -97t104.5 -108.5l-131 -107q-60 69 -98 101q-191 159 -513 159q-236 0 -373 -65.5t-137 -200.5q0 -65 36.5 -111t98.5 -69.5t145.5 -40.5t177 -23.5t192 -18t192 -24.5t177 -43t145.5 -73 t98.5 -115.5t36.5 -169.5q0 -95 -46.5 -177t-137 -145t-235.5 -99t-329 -36q-101 0 -191.5 12.5t-156 30t-130 49.5t-103.5 56.5t-86 67t-68 64t-59 64.5z" />
<glyph unicode="T" horiz-adv-x="1703" d="M43 1329v160h1618v-160h-719v-1329h-180v1329h-719z" />
<glyph unicode="U" horiz-adv-x="1933" d="M201 612v877h180v-877q0 -251 152 -374t434 -123t433.5 123t151.5 374v877h181v-877q0 -112 -24.5 -205.5t-66.5 -159.5t-102 -116.5t-126 -82t-144.5 -51t-151 -27t-151.5 -7.5t-151.5 7.5t-151 27t-144.5 51t-126 82t-102 116.5t-66.5 159.5t-24.5 205.5z" />
<glyph unicode="V" horiz-adv-x="1703" d="M-6 1489h201l657 -1292l659 1292h199l-770 -1489h-176z" />
<glyph unicode="W" horiz-adv-x="2048" d="M23 1489h190l352 -1208h4l367 1208h172l369 -1202h4l356 1202h188l-462 -1489h-172l-363 1214h-4l-365 -1214h-172z" />
<glyph unicode="X" horiz-adv-x="1703" d="M12 0l725 772l-663 717h239l543 -592l549 592h240l-668 -715l715 -774h-238l-594 647l-604 -647h-244z" />
<glyph unicode="Y" horiz-adv-x="1818" d="M51 1489h236l622 -727l623 727h235l-768 -887v-602h-180v602z" />
<glyph unicode="Z" horiz-adv-x="1593" d="M37 0v106l1204 1223h-1143v160h1434v-113l-1196 -1216h1220v-160h-1519z" />
<glyph unicode="[" horiz-adv-x="681" d="M160 -125v1614h493v-90h-327v-1434h327v-90h-493z" />
<glyph unicode="\" horiz-adv-x="569" d="M-6 1526h143l455 -1563h-143z" />
<glyph unicode="]" horiz-adv-x="681" d="M29 -35h327v1434h-327v90h493v-1614h-493v90z" />
<glyph unicode="^" horiz-adv-x="1228" d="M90 561l473 928h103l473 -928h-135l-390 768l-389 -768h-135z" />
<glyph unicode="_" horiz-adv-x="1024" d="M0 -154h1024v-102h-1024v102z" />
<glyph unicode="`" horiz-adv-x="454" d="M-78 1516h234l219 -291h-150z" />
<glyph unicode="a" d="M66 293q0 80 31 142.5t102.5 105t133 70.5t181.5 49t185.5 29.5t201.5 22.5q31 3 48 5l42.5 5t46.5 5v41q0 69 -52 116t-126.5 66t-165.5 19q-81 0 -150.5 -14t-111 -31t-82 -47t-55.5 -45.5t-39 -43.5l-125 86q29 36 46 55t66.5 57.5t101.5 60t141.5 39.5t195.5 18 q78 0 148.5 -9.5t140.5 -34t120 -62t81.5 -99.5t31.5 -141v-592q0 -58 19 -166h-166q-21 87 -21 129q-253 -162 -534 -162q-59 0 -113.5 7t-115.5 28.5t-105 56t-73 95t-29 139.5zM223 293q0 -48 21 -84t50.5 -56t69 -32t70 -15.5t60.5 -3.5q81 0 163.5 16.5t159.5 48 t119.5 51.5t101.5 52v322q-104 -10 -175.5 -18t-156 -19.5t-141 -23.5t-116.5 -28.5t-97.5 -36.5t-69 -45.5t-45.5 -57.5t-14 -70z" />
<glyph unicode="b" horiz-adv-x="1478" d="M141 0q1 10 4.5 57.5t6 89t2.5 54.5v1288h165v-565q123 94 225 137t255 43q132 0 239.5 -36.5t175.5 -95t114.5 -136t65.5 -155t19 -155.5q0 -76 -20.5 -152t-67.5 -150t-114 -130.5t-168.5 -91.5t-223.5 -35q-115 0 -204.5 25t-151.5 63.5t-152 112.5l-41 -168h-129z M319 336q85 -92 212.5 -159.5t252.5 -67.5q106 0 194.5 33.5t146.5 90.5t90 131.5t32 157.5q0 117 -40 205.5t-107.5 138t-146 73.5t-165.5 24q-83 0 -155.5 -17.5t-130.5 -50.5t-99.5 -66t-83.5 -77v-416z" />
<glyph unicode="c" d="M66 539q0 135 49 243.5t133.5 178t195 106.5t236.5 37q386 0 559 -293l-143 -82q-20 33 -36 55t-53.5 59.5t-78 60.5t-106.5 41t-142 18q-68 0 -131.5 -15.5t-122 -50t-101.5 -84.5t-68.5 -125t-25.5 -166q0 -177 133 -295t330 -118q143 0 249.5 54t186.5 191l144 -80 q-38 -67 -85 -118t-115.5 -96t-165.5 -69t-218 -24q-141 0 -259 44t-197.5 121t-123.5 182t-44 225z" />
<glyph unicode="d" horiz-adv-x="1478" d="M66 526q0 78 19 155.5t65.5 155t114.5 136t175.5 95t239.5 36.5q152 0 251 -42t228 -138v565h166v-1288q0 -3 12 -201h-149l-21 168q-69 -56 -116 -88t-109 -60.5t-131.5 -40.5t-159.5 -12q-119 0 -219 35t-166.5 91.5t-112.5 130.5t-66.5 150t-20.5 152zM231 522 q0 -83 32 -157.5t90 -131.5t146.5 -90.5t194.5 -33.5q125 0 252.5 67.5t212.5 159.5v416q-42 44 -83.5 77t-99.5 66t-130.5 50.5t-155.5 17.5q-87 0 -165.5 -24t-146 -73.5t-107.5 -138t-40 -205.5z" />
<glyph unicode="e" d="M66 541q0 166 77.5 295.5t210 198.5t297.5 69q132 0 245 -35.5t202 -106t139 -188.5q47 -111 47 -255v-17h-1053q6 -77 39.5 -146.5t90 -125t141.5 -88.5t186 -33q57 0 108 8t86.5 17.5t72 30.5t55.5 33.5t46.5 41t35.5 38.5t32 39l129 -94q-80 -85 -105 -106 q-124 -110 -309 -138q-76 -12 -167 -12q-133 0 -246.5 44t-192 120t-123 182t-44.5 228zM238 643h866q-26 139 -140.5 229.5t-297.5 90.5q-178 0 -285 -83.5t-143 -236.5z" />
<glyph unicode="f" horiz-adv-x="1024" d="M47 907v142h270v81q0 396 381 396q154 0 279 -29v-147q-140 34 -229 34q-83 0 -137.5 -18.5t-81.5 -56.5t-36.5 -82t-9.5 -109v-69h441v-142h-441v-907h-166v907h-270z" />
<glyph unicode="g" d="M41 -76q0 134 182 197q-31 18 -44.5 26.5t-34.5 27t-29.5 41.5t-8.5 54q0 35 14 65t41 54.5t45 37t48 30.5q-75 68 -110 126.5t-35 143.5q0 98 42 173t115 118t162 64.5t193 21.5q137 0 224.5 -21.5t176.5 -78.5q53 44 81 62t77 32t118 14v-151q-56 0 -100.5 -9 t-58.5 -15.5t-41 -21.5q18 -28 28 -47t20.5 -62.5t10.5 -96.5q0 -43 -15 -90t-52.5 -97.5t-92.5 -89.5t-143 -64.5t-197 -25.5q-112 0 -171 10.5t-138 40.5q-76 -27 -76 -88q0 -15 2 -24.5t10.5 -19t20.5 -15t35 -11t51.5 -8t74 -5t98 -3.5t126.5 -2q94 -1 161.5 -4t136 -10 t114.5 -19.5t87 -32t65 -47t37.5 -65t13.5 -86.5q0 -60 -23.5 -108.5t-62.5 -82.5t-96 -59.5t-116 -40t-131 -24t-133 -12.5t-129 -3q-62 0 -120 4.5t-126 15.5t-124 33t-103 54t-73.5 81.5t-26.5 112.5zM201 -78q0 -45 36 -78t97.5 -51t131 -26.5t146.5 -8.5q110 0 202 9.5 t168.5 29.5t119.5 55.5t43 84.5q0 36 -15.5 57.5t-61 35.5t-113.5 20.5t-187 10.5q-190 6 -391 15q-90 -33 -133 -68t-43 -86zM268 725q0 -60 27.5 -106.5t67.5 -72.5t93 -42.5t95.5 -21.5t83.5 -5q66 0 125.5 12t115 38.5t88.5 77t33 120.5q0 59 -24 104.5t-60 71t-87 42 t-97 21.5t-98 5q-50 0 -96.5 -6t-96.5 -23t-86.5 -43t-60 -70.5t-23.5 -101.5z" />
<glyph unicode="h" d="M154 0v1489h165v-574q218 189 451 189q34 0 66.5 -2.5t79 -12t85 -26t79 -46.5t68.5 -70.5t46 -102t18 -137.5v-707h-165v674v7q0 69 -19 121q-20 54 -50 84t-72.5 48t-78.5 23.5t-77 5.5q-124 0 -234.5 -62t-196.5 -153v-748h-165z" />
<glyph unicode="i" horiz-adv-x="456" d="M133 1298v191h191v-191h-191zM147 0v1071h166v-1071h-166z" />
<glyph unicode="j" horiz-adv-x="569" d="M-8 -217q44 -19 100 -19q74 0 103.5 41t29.5 138v1128h164v-1165q0 -140 -63 -211.5t-211 -71.5q-47 0 -123 17v143zM211 1298v191h190v-191h-190z" />
<glyph unicode="k" d="M154 0v1489h165v-948l685 530h256l-504 -389l569 -682h-211l-485 588l-310 -238v-350h-165z" />
<glyph unicode="l" horiz-adv-x="456" d="M145 0v1489h166v-1489h-166z" />
<glyph unicode="m" horiz-adv-x="2045" d="M145 0v1071h160v-149q104 88 204 135t222 47q67 0 121 -13.5t86.5 -30.5t61.5 -47t41 -49t30 -51q127 107 222.5 149t213.5 42q27 0 53.5 -2t67.5 -9.5t76 -20.5t72.5 -38.5t64 -59t43.5 -85t17 -115.5v-774h-166v713q0 21 -0.5 35t-5 43t-13 49t-26 45t-41.5 40.5 t-62.5 26.5t-87.5 11q-65 0 -127.5 -18.5t-115 -52.5t-83.5 -59t-67 -59v-774h-166v713q0 21 -0.5 35t-5 43t-12.5 49t-25 45t-41 40.5t-61.5 26.5t-85.5 11q-67 0 -130 -18.5t-116 -52.5t-84.5 -59t-67.5 -59v-774h-166z" />
<glyph unicode="n" d="M154 0v1071h165v-156q218 189 451 189q34 0 66.5 -2.5t79 -12t85 -26t79 -46.5t68.5 -70.5t46 -102t18 -137.5v-707h-165v674v7q0 69 -19 121q-20 54 -50 84t-72.5 48t-78.5 23.5t-77 5.5q-124 0 -234.5 -62t-196.5 -153v-748h-165z" />
<glyph unicode="o" d="M66 555q0 153 75 277t217 198t326 74t325.5 -74t216 -198t74.5 -277q0 -140 -45 -251.5t-126.5 -185t-194.5 -112.5t-250 -39t-250.5 39t-195.5 112.5t-127 185t-45 251.5zM231 535q0 -193 122 -309.5t331 -116.5t330 116t121 310q0 77 -26 150t-77.5 136.5t-141.5 102.5 t-206 39t-206.5 -39t-142.5 -102.5t-78 -136.5t-26 -150z" />
<glyph unicode="p" horiz-adv-x="1478" d="M154 -377v1448h165v-162q66 53 111.5 84t106.5 59t130.5 40t159.5 12q119 0 219 -35t166.5 -91.5t113 -130.5t67 -150t20.5 -152q0 -78 -19 -155.5t-65.5 -155t-114.5 -136t-175.5 -95t-239.5 -36.5q-106 0 -193 24.5t-144 58t-143 97.5v-524h-165zM319 319 q42 -43 84 -76.5t99.5 -66t130 -50t155.5 -17.5q69 0 133 14t124 47.5t104.5 82.5t71 125.5t26.5 170.5q0 83 -32 158t-90 132t-146.5 90.5t-194.5 33.5q-125 0 -252.5 -68t-212.5 -160v-416z" />
<glyph unicode="q" horiz-adv-x="1478" d="M66 545q0 76 20.5 152t66.5 150t112.5 130.5t166.5 91.5t219 35t209.5 -25t151.5 -63.5t151 -112.5l39 168h123v-1448h-166v524q-129 -96 -228 -138t-251 -42q-132 0 -239.5 36.5t-175.5 95t-114.5 136t-65.5 155t-19 155.5zM231 549q0 -94 26.5 -170.5t71 -125.5 t104.5 -82.5t124 -47.5t133 -14q83 0 155.5 17.5t130 50t99.5 66t84 76.5v416q-85 92 -212.5 160t-252.5 68q-106 0 -194.5 -33.5t-146.5 -90.5t-90 -132t-32 -158z" />
<glyph unicode="r" horiz-adv-x="909" d="M154 0v1071h165v-223q37 42 63.5 69.5t73 66.5t89 62t101 40.5t120.5 17.5q57 0 98 -8v-166q-4 0 -25 4t-48.5 7t-59.5 3q-66 0 -132 -28.5t-113.5 -69t-86 -85.5t-58.5 -77t-22 -43v-641h-165z" />
<glyph unicode="s" horiz-adv-x="1251" d="M55 221l123 113q179 -225 486 -225q92 0 165.5 18.5t121.5 60.5t48 103q0 48 -30.5 81.5t-82 51.5t-118 29.5t-140.5 20t-148 19t-140.5 30.5t-118 50t-82 82t-30.5 123t28 127.5t74 93t108.5 61t128 34.5t136.5 10q382 0 546 -232l-112 -102q-150 193 -436 193 q-148 0 -228 -45t-80 -130q0 -56 49 -89.5t127.5 -48t173.5 -24.5t190.5 -27t174 -47t127.5 -93t49 -156q0 -89 -41.5 -155.5t-114.5 -105t-163 -57t-197 -18.5q-186 0 -332 59.5t-262 194.5z" />
<glyph unicode="t" horiz-adv-x="909" d="M25 930v141h227v356h166v-356h426v-141h-426v-647q0 -91 48.5 -132.5t170.5 -41.5q75 0 235 32v-143q-205 -31 -270 -31q-72 0 -129.5 12.5t-93.5 31t-61.5 48t-38 53t-19 58.5t-7.5 52t-1 44v664h-227z" />
<glyph unicode="u" d="M154 365v706h165v-674v-7q0 -68 19 -120q20 -54 49.5 -84t72.5 -48.5t79 -23.5t77 -5q124 0 234.5 62t196.5 153v747h165v-1071h-165v156q-218 -189 -451 -189q-34 0 -66.5 2.5t-78.5 12.5t-85 26t-79.5 46.5t-68.5 71t-46 102t-18 137.5z" />
<glyph unicode="v" d="M51 1071h180l451 -891l455 891h178l-549 -1071h-166z" />
<glyph unicode="w" horiz-adv-x="1933" d="M31 1071h170l356 -872l332 872h155l332 -874l353 874h174l-453 -1071h-158l-325 868l-328 -868h-158z" />
<glyph unicode="x" horiz-adv-x="1251" d="M-2 0l518 563l-475 508h213l375 -397l362 397h213l-475 -508l524 -563h-217l-407 455l-414 -455h-217z" />
<glyph unicode="y" d="M49 1071h180l459 -864l438 864h181l-627 -1208q-125 -240 -375 -240q-93 0 -205 33v151q68 -32 193 -32q98 0 166.5 58t140.5 208z" />
<glyph unicode="z" horiz-adv-x="1251" d="M78 0v104l813 826h-770v141h1034l-4 -102l-811 -828h834v-141h-1096z" />
<glyph unicode="{" horiz-adv-x="681" d="M98 637v90q49 0 74 18t37 68t12 148v321q0 108 51 157.5t158 49.5h154v-90h-68q-69 0 -99 -22t-30 -87v-387q0 -188 -123 -219v-4q123 -31 123 -219v-387q0 -65 30 -87t99 -22h68v-90h-154q-107 0 -158 49.5t-51 157.5v321q0 98 -12 148t-37 68t-74 18z" />
<glyph unicode="|" horiz-adv-x="454" d="M166 -512v2048h123v-2048h-123z" />
<glyph unicode="}" horiz-adv-x="681" d="M98 -35h68q69 0 99 22t30 87v387q0 188 123 219v4q-123 31 -123 219v387q0 65 -30 87t-99 22h-68v90h154q107 0 158 -49.5t51 -157.5v-321q0 -98 12 -148t37 -68t74 -18v-90q-49 0 -74 -18t-37 -68t-12 -148v-321q0 -108 -51 -157.5t-158 -49.5h-154v90z" />
<glyph unicode="~" horiz-adv-x="1228" d="M141 473q92 176 256 176q98 0 228 -65q148 -74 209 -74q29 0 55 11.5t49.5 36t38 44.5t37.5 55l73 -94q-23 -32 -38.5 -52t-41 -46.5t-49.5 -41t-57 -25.5t-70 -11q-52 0 -99 17t-109 51q-127 71 -220 71q-34 0 -63 -12t-52 -35.5t-39 -45.5t-34 -54z" />
<glyph unicode="&#xa1;" horiz-adv-x="681" d="M225 -418l43 1047h140l49 -1047h-232zM236 834v237h210v-237h-210z" />
<glyph unicode="&#xa2;" horiz-adv-x="1478" d="M133 571q0 135 49 243.5t134 178.5t195.5 107t236.5 37q48 0 106 -7l92 254h129l-100 -276q223 -66 338 -264l-144 -82q-19 30 -34.5 51.5t-45.5 54.5t-72 58.5t-93 42.5l-295 -811q70 -17 133 -17q147 0 254.5 54t187.5 192l144 -80q-38 -67 -85 -118t-116.5 -96 t-167.5 -69t-221 -24q-99 0 -180 20l-101 -276h-131l117 315q-147 54 -238.5 196.5t-91.5 315.5zM299 555q0 -112 59 -204t158 -148l287 790q-20 2 -55 2q-86 0 -164 -25.5t-143 -76.5t-103.5 -138t-38.5 -200z" />
<glyph unicode="&#xa3;" horiz-adv-x="1478" d="M51 -37v170q65 14 112.5 40.5t75.5 69.5t45 80t23.5 102.5t8 103.5t1.5 115v24h-264v133h254q-20 120 -20 299q0 188 156.5 310t390.5 116q431 -14 557 -385l-154 -64q-88 297 -426 297q-365 0 -365 -334q0 -27 3 -60.5t5.5 -54.5t9.5 -64.5t9 -59.5h367v-133h-357 q0 -140 -13 -235t-52 -181q111 -56 265.5 -96.5t268.5 -40.5q149 0 223.5 63.5t98.5 204.5l153 -31q-15 -93 -46 -161t-86.5 -121t-145 -80t-213.5 -27q-233 0 -586 156q-58 -64 -124 -101.5t-175 -54.5z" />
<glyph unicode="&#xa4;" horiz-adv-x="1478" d="M231 313l111 115q-111 131 -111 315q0 185 111 316l-111 115l78 77l113 -112q136 112 317 112q182 0 318 -112l112 112l78 -77l-110 -115q110 -130 110 -316q0 -185 -110 -315l110 -115l-78 -77l-112 112q-136 -112 -318 -112q-181 0 -317 112l-113 -112zM354 743 q0 -160 112.5 -272.5t272.5 -112.5t272.5 112.5t112.5 272.5t-112.5 272.5t-272.5 112.5t-272.5 -112.5t-112.5 -272.5z" />
<glyph unicode="&#xa5;" horiz-adv-x="1478" d="M41 1489h235l463 -727l463 727h236l-525 -764h279v-127h-363v-152h363v-127h-363v-319h-180v319h-362v127h362v152h-362v127h278z" />
<glyph unicode="&#xa6;" horiz-adv-x="454" d="M166 -358v716h123v-716h-123zM166 666v716h123v-716h-123z" />
<glyph unicode="&#xa7;" horiz-adv-x="1024" d="M59 782q0 103 66.5 169.5t134.5 66.5q37 0 55 -4l4 4q-6 6 -24.5 24t-24 24t-20 21.5t-19.5 23.5t-15 22.5t-13.5 26t-8.5 27.5t-6.5 33t-1.5 37q0 47 16 92t49 86t93 66t139 25q61 0 115.5 -17t89.5 -39t68 -56t48 -54.5t32 -48.5l-121 -78q-17 27 -26 40t-31.5 38.5 t-42.5 38t-52.5 23.5t-68.5 11q-60 0 -101 -31.5t-41 -92.5q0 -26 4.5 -42.5t24.5 -47t68 -74t129 -109.5q209 -168 298 -280t89 -215q0 -59 -23 -104.5t-60.5 -71t-77 -39t-81.5 -15.5q25 -21 38.5 -35t36.5 -43.5t34.5 -66.5t11.5 -80q0 -37 -9.5 -75.5t-33 -78.5 t-58.5 -71t-90 -50.5t-123 -19.5q-61 0 -114.5 16.5t-89 39t-69.5 58t-51 59.5t-38 58l121 78q29 -49 56.5 -81.5t75.5 -59.5t105 -27q67 0 116.5 37.5t49.5 108.5q0 21 -6 40.5t-21.5 41.5t-31 39t-46.5 44t-54 46.5t-68 55.5t-76 62q-190 158 -260 247.5t-70 176.5z M211 797q0 -84 188 -244q14 -12 47 -40.5t47 -40.5t41.5 -33.5t43 -31t37 -21.5t39.5 -16.5t36 -4.5q56 0 89.5 38.5t33.5 79.5q0 53 -52 121t-179 180q-87 79 -135 108.5t-103 29.5q-56 0 -94.5 -33t-38.5 -92z" />
<glyph unicode="&#xa8;" horiz-adv-x="454" d="M-51 1280v209h184v-209h-184zM322 1280v209h184v-209h-184z" />
<glyph unicode="&#xa9;" horiz-adv-x="1640" d="M39 745q0 159 61.5 303.5t166 249t249 166.5t303.5 62q213 0 393 -104.5t285 -284.5t105 -392q0 -159 -62 -304t-167 -249.5t-250 -166.5t-304 -62t-303.5 62t-249 166.5t-166 249.5t-61.5 304zM162 743q0 -135 51.5 -256.5t139.5 -209.5t209.5 -139.5t256.5 -51.5 q180 0 331.5 87.5t240 239t88.5 330.5q0 134 -52 256.5t-140.5 211t-211 140.5t-256.5 52q-179 0 -330.5 -88.5t-239 -240t-87.5 -331.5zM360 743q0 228 127.5 368t350.5 140q166 0 278 -88t135 -248h-137q-21 92 -91.5 152.5t-174.5 60.5q-165 0 -258.5 -109.5 t-93.5 -275.5q0 -98 41.5 -184.5t121.5 -142.5t181 -56q104 0 179.5 65t94.5 159h137q-38 -160 -143.5 -253t-263.5 -93q-219 0 -351.5 142t-132.5 363z" />
<glyph unicode="&#xaa;" horiz-adv-x="888" d="M66 1040q0 50 25 89.5t68 65t98 44t118.5 29t126 18t123.5 12.5l21 1.5t18 1.5t20 2v22q0 55 -59.5 83t-149.5 28q-196 0 -274 -105l-92 58q18 21 29 32.5t43 34.5t66 35.5t92.5 23.5t127.5 11q64 0 120.5 -10t108 -32t81.5 -64t30 -101v-354q0 -43 10 -101h-106 q-13 65 -13 78q-164 -98 -348 -98q-50 0 -94 8t-90 27.5t-73 60.5t-27 100zM180 1040q0 -31 18 -53.5t45.5 -33t52.5 -15t48 -4.5q37 0 76 6t67.5 12.5t65.5 19.5t52.5 19.5t46.5 20.5t32 14v186q-82 -8 -138.5 -14.5t-119.5 -16.5t-103.5 -22t-75 -29t-51 -39.5 t-16.5 -50.5z" />
<glyph unicode="&#xab;" horiz-adv-x="1024" d="M92 547l285 340h168l-281 -340l281 -340h-168zM479 547l285 340h168l-281 -340l281 -340h-168z" />
<glyph unicode="&#xac;" horiz-adv-x="1228" d="M96 655v123h1037v-557h-123v434h-914z" />
<glyph unicode="&#xad;" horiz-adv-x="681" d="M63 471v152h555v-152h-555z" />
<glyph unicode="&#xae;" horiz-adv-x="1640" d="M39 745q0 159 61.5 303.5t166 249t249 166.5t303.5 62q213 0 393 -104.5t285 -284.5t105 -392q0 -159 -62 -304t-167 -249.5t-250 -166.5t-304 -62t-303.5 62t-249 166.5t-166 249.5t-61.5 304zM162 743q0 -135 51.5 -256.5t139.5 -209.5t209.5 -139.5t256.5 -51.5 q180 0 331.5 87.5t240 239t88.5 330.5q0 134 -52 256.5t-140.5 211t-211 140.5t-256.5 52q-179 0 -330.5 -88.5t-239 -240t-87.5 -331.5zM518 281v929h369q301 0 301 -258q0 -114 -65.5 -178t-168.5 -80l281 -413h-152l-272 413h-170v-413h-123zM641 805h203q42 0 71 2.5 t59.5 11t48.5 24.5t30 44t12 67q0 47 -17.5 77.5t-51.5 45t-68.5 19t-83.5 4.5h-203v-295z" />
<glyph unicode="&#xaf;" horiz-adv-x="454" d="M-72 1294v119h598v-119h-598z" />
<glyph unicode="&#xb0;" horiz-adv-x="819" d="M96 1212q0 129 92.5 221.5t221.5 92.5t221 -92.5t92 -221.5t-92 -221t-221 -92t-221.5 92t-92.5 221zM207 1212q0 -85 59 -143.5t144 -58.5t143.5 58.5t58.5 143.5t-58.5 144t-143.5 59t-144 -59t-59 -144z" />
<glyph unicode="&#xb1;" horiz-adv-x="1228" d="M96 0v123h1037v-123h-1037zM96 561v123h457v352h123v-352h457v-123h-457v-352h-123v352h-457z" />
<glyph unicode="&#xb2;" horiz-adv-x="960" d="M57 610v107q3 15 20 41t51 63t99.5 82t149.5 84q46 21 106.5 45t95.5 37.5t74 34t59.5 40t34 49t13.5 67.5q0 73 -71 112t-200 39q-76 0 -135 -18.5t-94 -49.5t-54 -60t-30 -62l-108 67q14 38 43 76t77.5 76t126.5 62t174 24q200 0 302 -70.5t102 -191.5 q0 -31 -6.5 -58.5t-14.5 -49t-26 -43t-31.5 -36t-40.5 -31.5t-42.5 -26.5t-49.5 -24.5t-49.5 -21.5t-52.5 -21.5q-160 -65 -242 -110.5t-137 -116.5h692v-115h-836z" />
<glyph unicode="&#xb3;" horiz-adv-x="960" d="M25 756l94 92q125 -146 332 -146q75 0 141 16.5t113 55t47 92.5q0 160 -322 160h-154v115h140q303 0 303 133q0 58 -76.5 97.5t-185.5 39.5q-102 0 -180.5 -34t-124.5 -89l-91 92q35 33 66 55t79.5 45t115 34.5t151.5 11.5q65 0 127.5 -12t121 -37.5t94.5 -73.5t36 -113 q0 -48 -15.5 -84t-45 -59t-50 -34t-51.5 -23v-5q39 -11 69.5 -25t61 -38.5t47.5 -63t17 -88.5q0 -77 -35 -133.5t-96.5 -88t-134.5 -46t-160 -14.5q-72 0 -135.5 12t-105 27t-83 41.5t-61.5 43.5t-49 44z" />
<glyph unicode="&#xb4;" horiz-adv-x="454" d="M80 1225l219 291h233l-303 -291h-149z" />
<glyph unicode="&#xb5;" d="M154 -377v1448h165v-674q-1 -73 19 -127.5t49.5 -84t72.5 -48t79 -23.5t77 -5q124 0 234.5 62t196.5 153v747h165v-1071h-165v156q-218 -189 -437 -189q-38 0 -63.5 1.5t-69 8.5t-84 25.5t-74.5 48.5v-428h-165z" />
<glyph unicode="&#xb6;" horiz-adv-x="1228" d="M86 1087q0 192 120.5 297t336.5 105h442v-1710h-123v1620h-239v-1620h-123v919q-174 3 -294 113.5t-120 275.5z" />
<glyph unicode="&#xb7;" horiz-adv-x="739" d="M219 655q0 51 36 87t87 36t87 -36t36 -87t-36 -87t-87 -36t-87 36t-36 87z" />
<glyph unicode="&#xb8;" horiz-adv-x="454" d="M10 -430l35 96q86 -31 133 -31q49 0 83 20.5t34 63.5q0 39 -26 60.5t-60 21.5q-36 0 -92 -16l-37 39l131 176h96l-94 -123l4 -4q24 8 59 8q97 0 138 -44.5t41 -112.5q0 -72 -66.5 -133.5t-187.5 -61.5q-79 0 -191 41z" />
<glyph unicode="&#xb9;" horiz-adv-x="960" d="M233 1364v98q104 13 244 64h82v-801h186v-115h-495v115h186v653z" />
<glyph unicode="&#xba;" horiz-adv-x="888" d="M43 1198q0 140 110.5 234t290.5 94q179 0 290.5 -94t111.5 -234q0 -167 -110 -260.5t-292 -93.5t-291.5 93.5t-109.5 260.5zM158 1186q0 -110 78 -179t208 -69q134 0 210.5 68.5t76.5 179.5q0 44 -16.5 86.5t-49.5 80t-90.5 60.5t-130.5 23t-130.5 -23t-90 -60.5t-49 -80 t-16.5 -86.5z" />
<glyph unicode="&#xbb;" horiz-adv-x="1024" d="M92 207l281 340l-281 340h168l285 -340l-285 -340h-168zM479 207l281 340l-281 340h168l285 -340l-285 -340h-168z" />
<glyph unicode="&#xbc;" horiz-adv-x="2217" d="M233 1364v98q104 13 244 64h82v-801h186v-115h-495v115h186v653zM584 -37l921 1563h117l-920 -1563h-118zM1186 221v88l590 606h153v-587h158v-107h-158v-221h-123v221h-620zM1339 328h467v477z" />
<glyph unicode="&#xbd;" horiz-adv-x="2217" d="M233 1364v98q104 13 244 64h82v-801h186v-115h-495v115h186v653zM494 -37l921 1563h117l-920 -1563h-118zM1176 0v106q3 15 20 41t51 63.5t99 82.5t149 84q47 21 107 45t95 37.5t74 33.5t59.5 39.5t34 49t13.5 67.5q0 73 -71 112.5t-199 39.5q-76 0 -135 -18.5t-94 -50 t-54.5 -60.5t-30.5 -62l-108 68q14 38 43 75.5t78 76t127 62t174 23.5q199 0 301 -70.5t102 -191.5q0 -39 -9 -72t-24.5 -59t-38.5 -48.5t-48.5 -39.5t-57 -33t-62 -29t-65.5 -27q-5 -2 -8 -3q-160 -65 -242 -110.5t-137 -116.5h692v-115h-835z" />
<glyph unicode="&#xbe;" horiz-adv-x="2217" d="M66 756l94 92q125 -146 332 -146q75 0 141 16.5t113 55t47 92.5q0 160 -322 160h-154v115h140q303 0 303 133q0 58 -76.5 97.5t-185.5 39.5q-102 0 -180.5 -34t-124.5 -89l-91 92q35 33 66 55t79.5 45t115 34.5t151.5 11.5q65 0 127.5 -12t121 -37.5t94.5 -73.5t36 -113 q0 -48 -15.5 -84t-45 -59t-50 -34t-51.5 -23v-5q39 -11 69.5 -25t61 -38.5t47.5 -63t17 -88.5q0 -77 -35 -133.5t-96.5 -88t-134.5 -46t-160 -14.5q-72 0 -135.5 12t-105 27t-83 41.5t-61.5 43.5t-49 44zM666 -37l921 1563h117l-920 -1563h-118zM1186 221v88l590 606h153 v-587h158v-107h-158v-221h-123v221h-620zM1339 328h467v477z" />
<glyph unicode="&#xbf;" horiz-adv-x="1251" d="M76 -84q0 65 12 115.5t30 84.5t53 66.5t65.5 53.5t82.5 53q15 9 23 14q59 31 92.5 50.5t66.5 43t48.5 43t28.5 48t17.5 59.5t6.5 76h152q2 -72 -9.5 -127.5t-31.5 -96.5t-61.5 -80t-84.5 -68.5t-116 -72.5q-57 -32 -86 -51t-60.5 -49t-44 -66t-12.5 -84 q0 -104 96.5 -167.5t257.5 -63.5q308 0 449 242l145 -84q-52 -78 -102.5 -131t-120.5 -95.5t-162 -63t-211 -20.5q-75 0 -147.5 12.5t-141.5 41t-120.5 70.5t-83 105.5t-31.5 141.5zM571 834v237h211v-237h-211z" />
<glyph unicode="&#xc0;" horiz-adv-x="1820" d="M35 0l766 1489h221l764 -1489h-203l-192 387h-961l-194 -387h-201zM512 547h799l-400 801zM606 1878h234l219 -291h-150z" />
<glyph unicode="&#xc1;" horiz-adv-x="1820" d="M35 0l766 1489h221l764 -1489h-203l-192 387h-961l-194 -387h-201zM512 547h799l-400 801zM764 1587l219 291h234l-304 -291h-149z" />
<glyph unicode="&#xc2;" horiz-adv-x="1820" d="M35 0l766 1489h221l764 -1489h-203l-192 387h-961l-194 -387h-201zM512 547h799l-400 801zM590 1587l229 291h189l225 -291h-172l-148 193l-147 -193h-176z" />
<glyph unicode="&#xc3;" horiz-adv-x="1820" d="M35 0l766 1489h221l764 -1489h-203l-192 387h-961l-194 -387h-201zM512 547h799l-400 801zM590 1608q2 6 6.5 27.5t7.5 35t10.5 35.5t16 36.5t23.5 32t32 28t42.5 17.5t55.5 7q60 0 144 -37q84 -39 116 -39q37 0 62.5 24.5t26.5 67.5h100q-42 -221 -191 -221 q-65 0 -149 41q-7 3 -28.5 13t-31 14t-25.5 8t-30 4q-36 0 -64 -21t-28 -73h-96z" />
<glyph unicode="&#xc4;" horiz-adv-x="1820" d="M35 0l766 1489h221l764 -1489h-203l-192 387h-961l-194 -387h-201zM512 547h799l-400 801zM633 1642v209h184v-209h-184zM1006 1642v209h184v-209h-184z" />
<glyph unicode="&#xc5;" horiz-adv-x="1820" d="M35 0l766 1489h221l764 -1489h-203l-192 387h-961l-194 -387h-201zM512 547h799l-400 801zM666 1837q0 101 72 173.5t173 72.5t173.5 -72.5t72.5 -173.5q0 -100 -72 -173t-174 -73t-173.5 72.5t-71.5 173.5zM766 1837q0 -58 43 -101.5t102 -43.5t102.5 43.5t43.5 101.5 t-43.5 101.5t-102.5 43.5t-102 -43.5t-43 -101.5z" />
<glyph unicode="&#xc6;" horiz-adv-x="2048" d="M-27 0l885 1489h1120v-160h-792v-475h616v-160h-616v-534h815v-160h-995v424h-572l-252 -424h-209zM524 584h482v782h-21z" />
<glyph unicode="&#xc7;" horiz-adv-x="1820" d="M94 741q0 251 108 429.5t297.5 267t442.5 88.5q123 0 238 -24.5t219.5 -74t188.5 -133.5t132 -194l-155 -72q-51 119 -144.5 197.5t-212 113.5t-264.5 35q-320 0 -492.5 -169t-172.5 -486q0 -129 44 -237.5t127.5 -188.5t214.5 -125t296 -45q432 0 622 350l160 -78 q-217 -420 -762 -430l-66 -88l5 -4q24 8 59 8q97 0 137.5 -44.5t40.5 -112.5q0 -72 -66.5 -133.5t-187.5 -61.5q-78 0 -190 41l35 96q86 -31 133 -31q49 0 82.5 20.5t33.5 63.5q0 39 -26 60.5t-60 21.5q-36 0 -92 -16l-37 39l105 141q-197 7 -350.5 70.5t-249 169 t-144.5 241.5t-49 295z" />
<glyph unicode="&#xc8;" horiz-adv-x="1593" d="M195 0v1489h1327v-160h-1147v-475h958v-160h-958v-534h1171v-160h-1351zM492 1878h233l219 -291h-149z" />
<glyph unicode="&#xc9;" horiz-adv-x="1593" d="M195 0v1489h1327v-160h-1147v-475h958v-160h-958v-534h1171v-160h-1351zM649 1587l219 291h234l-303 -291h-150z" />
<glyph unicode="&#xca;" horiz-adv-x="1593" d="M195 0v1489h1327v-160h-1147v-475h958v-160h-958v-534h1171v-160h-1351zM475 1587l230 291h188l225 -291h-172l-147 193l-148 -193h-176z" />
<glyph unicode="&#xcb;" horiz-adv-x="1593" d="M195 0v1489h1327v-160h-1147v-475h958v-160h-958v-534h1171v-160h-1351zM518 1642v209h184v-209h-184zM891 1642v209h184v-209h-184z" />
<glyph unicode="&#xcc;" horiz-adv-x="569" d="M-20 1878h233l219 -291h-149zM195 0v1489h180v-1489h-180z" />
<glyph unicode="&#xcd;" horiz-adv-x="569" d="M137 1587l219 291h234l-303 -291h-150zM195 0v1489h180v-1489h-180z" />
<glyph unicode="&#xce;" horiz-adv-x="569" d="M-37 1587l230 291h188l225 -291h-172l-147 193l-148 -193h-176zM195 0v1489h180v-1489h-180z" />
<glyph unicode="&#xcf;" horiz-adv-x="569" d="M6 1642v209h184v-209h-184zM195 0v1489h180v-1489h-180zM379 1642v209h184v-209h-184z" />
<glyph unicode="&#xd0;" horiz-adv-x="1820" d="M43 725v111h152v653h735q175 0 320 -46.5t251.5 -136t165.5 -229.5t59 -319q0 -126 -27 -232.5t-73.5 -183t-112.5 -137t-139.5 -98.5t-160.5 -62.5t-169.5 -34.5t-171.5 -10h-677v725h-152zM375 160h526q33 0 61.5 1.5t78.5 7.5t92 17t95 33t95.5 52t84.5 76.5t70.5 104 t46 137.5t17.5 175q0 126 -35 225.5t-92.5 162t-138.5 103.5t-165.5 57.5t-180.5 16.5h-555v-493h577v-111h-577v-565z" />
<glyph unicode="&#xd1;" horiz-adv-x="1933" d="M195 0v1489h256l1108 -1225v1225h180v-1489h-180l-1192 1329v-1329h-172zM645 1608q1 6 6 28t8 34.5t11 35t16.5 37t23 32t32 28t43 17.5t55.5 7q59 0 143 -37q84 -39 117 -39q37 0 62 24.5t26 67.5h100q-5 -28 -10 -48t-19.5 -56t-33.5 -58.5t-52 -40.5t-75 -18 q-66 0 -150 41q-8 4 -28.5 13.5t-30.5 13.5t-25.5 8t-29.5 4q-36 0 -64.5 -21t-28.5 -73h-96z" />
<glyph unicode="&#xd2;" horiz-adv-x="1933" d="M94 735q0 183 65.5 332.5t181.5 249.5t276.5 154.5t349.5 54.5t349.5 -54.5t276.5 -154.5t181 -249.5t65 -332.5q0 -153 -49.5 -282t-133.5 -218t-196.5 -151.5t-237 -91.5t-255.5 -29t-255.5 29t-237 91.5t-197 151.5t-134 218t-49.5 282zM279 768q0 -132 36.5 -240.5 t100 -182.5t151 -125t188 -74t212.5 -23q111 0 210.5 23t187.5 74t152 125t101 182.5t37 240.5q0 125 -47.5 235t-134 192.5t-217.5 130.5t-289 48t-289 -48t-217.5 -130.5t-134 -192.5t-47.5 -235zM662 1878h233l219 -291h-149z" />
<glyph unicode="&#xd3;" horiz-adv-x="1933" d="M94 735q0 183 65.5 332.5t181.5 249.5t276.5 154.5t349.5 54.5t349.5 -54.5t276.5 -154.5t181 -249.5t65 -332.5q0 -153 -49.5 -282t-133.5 -218t-196.5 -151.5t-237 -91.5t-255.5 -29t-255.5 29t-237 91.5t-197 151.5t-134 218t-49.5 282zM279 768q0 -132 36.5 -240.5 t100 -182.5t151 -125t188 -74t212.5 -23q111 0 210.5 23t187.5 74t152 125t101 182.5t37 240.5q0 125 -47.5 235t-134 192.5t-217.5 130.5t-289 48t-289 -48t-217.5 -130.5t-134 -192.5t-47.5 -235zM819 1587l219 291h234l-303 -291h-150z" />
<glyph unicode="&#xd4;" horiz-adv-x="1933" d="M94 735q0 183 65.5 332.5t181.5 249.5t276.5 154.5t349.5 54.5t349.5 -54.5t276.5 -154.5t181 -249.5t65 -332.5q0 -153 -49.5 -282t-133.5 -218t-196.5 -151.5t-237 -91.5t-255.5 -29t-255.5 29t-237 91.5t-197 151.5t-134 218t-49.5 282zM279 768q0 -132 36.5 -240.5 t100 -182.5t151 -125t188 -74t212.5 -23q111 0 210.5 23t187.5 74t152 125t101 182.5t37 240.5q0 125 -47.5 235t-134 192.5t-217.5 130.5t-289 48t-289 -48t-217.5 -130.5t-134 -192.5t-47.5 -235zM645 1587l229 291h189l225 -291h-172l-147 193l-148 -193h-176z" />
<glyph unicode="&#xd5;" horiz-adv-x="1933" d="M94 735q0 183 65.5 332.5t181.5 249.5t276.5 154.5t349.5 54.5t349.5 -54.5t276.5 -154.5t181 -249.5t65 -332.5q0 -153 -49.5 -282t-133.5 -218t-196.5 -151.5t-237 -91.5t-255.5 -29t-255.5 29t-237 91.5t-197 151.5t-134 218t-49.5 282zM279 768q0 -132 36.5 -240.5 t100 -182.5t151 -125t188 -74t212.5 -23q111 0 210.5 23t187.5 74t152 125t101 182.5t37 240.5q0 125 -47.5 235t-134 192.5t-217.5 130.5t-289 48t-289 -48t-217.5 -130.5t-134 -192.5t-47.5 -235zM645 1608q1 6 6 28t8 34.5t11 35t16.5 37t23 32t32 28t43 17.5t55.5 7 q59 0 143 -37q84 -39 117 -39q37 0 62 24.5t26 67.5h100q-5 -28 -10 -48t-19.5 -56t-33.5 -58.5t-52 -40.5t-75 -18q-66 0 -150 41q-8 4 -28.5 13.5t-30.5 13.5t-25.5 8t-29.5 4q-36 0 -64.5 -21t-28.5 -73h-96z" />
<glyph unicode="&#xd6;" horiz-adv-x="1933" d="M94 735q0 183 65.5 332.5t181.5 249.5t276.5 154.5t349.5 54.5t349.5 -54.5t276.5 -154.5t181 -249.5t65 -332.5q0 -153 -49.5 -282t-133.5 -218t-196.5 -151.5t-237 -91.5t-255.5 -29t-255.5 29t-237 91.5t-197 151.5t-134 218t-49.5 282zM279 768q0 -132 36.5 -240.5 t100 -182.5t151 -125t188 -74t212.5 -23q111 0 210.5 23t187.5 74t152 125t101 182.5t37 240.5q0 125 -47.5 235t-134 192.5t-217.5 130.5t-289 48t-289 -48t-217.5 -130.5t-134 -192.5t-47.5 -235zM688 1642v209h184v-209h-184zM1061 1642v209h184v-209h-184z" />
<glyph unicode="&#xd7;" horiz-adv-x="1228" d="M143 135l383 383l-383 381l90 90l381 -383l381 383l90 -90l-383 -381l383 -383l-90 -88l-381 383l-381 -383z" />
<glyph unicode="&#xd8;" horiz-adv-x="1933" d="M-8 -145l334 333q-232 209 -232 547q0 183 65.5 332.5t181.5 249.5t276.5 154.5t349.5 54.5q321 0 546 -152l209 209h189l-293 -293q221 -215 221 -555q0 -153 -49.5 -282t-133.5 -218t-196.5 -151.5t-237 -91.5t-255.5 -29q-309 0 -535 143l-252 -251h-188zM279 768 q0 -290 170 -457l946 944q-174 119 -428 119q-158 0 -289 -48t-217.5 -130.5t-134 -192.5t-47.5 -235zM555 227q166 -104 412 -104q111 0 210.5 23t187.5 74t152 125t101 182.5t37 240.5q0 116 -41 219.5t-117 181.5z" />
<glyph unicode="&#xd9;" horiz-adv-x="1933" d="M201 612v877h180v-877q0 -251 152 -374t434 -123t433.5 123t151.5 374v877h181v-877q0 -112 -24.5 -205.5t-66.5 -159.5t-102 -116.5t-126 -82t-144.5 -51t-151 -27t-151.5 -7.5t-151.5 7.5t-151 27t-144.5 51t-126 82t-102 116.5t-66.5 159.5t-24.5 205.5zM662 1878h233 l219 -291h-149z" />
<glyph unicode="&#xda;" horiz-adv-x="1933" d="M201 612v877h180v-877q0 -251 152 -374t434 -123t433.5 123t151.5 374v877h181v-877q0 -112 -24.5 -205.5t-66.5 -159.5t-102 -116.5t-126 -82t-144.5 -51t-151 -27t-151.5 -7.5t-151.5 7.5t-151 27t-144.5 51t-126 82t-102 116.5t-66.5 159.5t-24.5 205.5zM819 1587 l219 291h234l-303 -291h-150z" />
<glyph unicode="&#xdb;" horiz-adv-x="1933" d="M201 612v877h180v-877q0 -251 152 -374t434 -123t433.5 123t151.5 374v877h181v-877q0 -112 -24.5 -205.5t-66.5 -159.5t-102 -116.5t-126 -82t-144.5 -51t-151 -27t-151.5 -7.5t-151.5 7.5t-151 27t-144.5 51t-126 82t-102 116.5t-66.5 159.5t-24.5 205.5zM645 1587 l229 291h189l225 -291h-172l-147 193l-148 -193h-176z" />
<glyph unicode="&#xdc;" horiz-adv-x="1933" d="M201 612v877h180v-877q0 -251 152 -374t434 -123t433.5 123t151.5 374v877h181v-877q0 -112 -24.5 -205.5t-66.5 -159.5t-102 -116.5t-126 -82t-144.5 -51t-151 -27t-151.5 -7.5t-151.5 7.5t-151 27t-144.5 51t-126 82t-102 116.5t-66.5 159.5t-24.5 205.5zM688 1642v209 h184v-209h-184zM1061 1642v209h184v-209h-184z" />
<glyph unicode="&#xdd;" horiz-adv-x="1818" d="M51 1489h236l622 -727l623 727h235l-768 -887v-602h-180v602zM762 1587l219 291h233l-303 -291h-149z" />
<glyph unicode="&#xde;" horiz-adv-x="1703" d="M195 0v1489h180v-252h692q575 0 575 -426q0 -428 -575 -428h-692v-383h-180zM375 543h645q233 0 341.5 59.5t108.5 206.5q0 149 -108.5 208.5t-341.5 59.5h-645v-534z" />
<glyph unicode="&#xdf;" d="M154 0v1044q0 235 130.5 358.5t360.5 123.5q140 0 245.5 -34t164.5 -92t87.5 -126t28.5 -146q0 -65 -20 -119.5t-52 -88t-65 -53t-65 -25.5v-4q153 -32 239 -138t86 -288q0 -49 -9 -96.5t-29 -100t-58 -96.5t-90.5 -80t-132.5 -56t-178 -20q-153 0 -303 82l61 133 q137 -74 254 -74q90 0 155.5 27.5t99 74.5t48.5 98.5t14 111.5q-1 178 -106 252.5t-322 74.5h-53v142q63 0 110.5 5t97 21.5t81.5 44t52 75.5t20 114q0 115 -97 177t-260 62q-330 0 -330 -380v-1004h-165z" />
<glyph unicode="&#xe0;" d="M66 293q0 80 31 142.5t102.5 105t133 70.5t181.5 49t185.5 29.5t201.5 22.5q31 3 48 5l42.5 5t46.5 5v41q0 69 -52 116t-126.5 66t-165.5 19q-81 0 -150.5 -14t-111 -31t-82 -47t-55.5 -45.5t-39 -43.5l-125 86q29 36 46 55t66.5 57.5t101.5 60t141.5 39.5t195.5 18 q78 0 148.5 -9.5t140.5 -34t120 -62t81.5 -99.5t31.5 -141v-592q0 -58 19 -166h-166q-21 87 -21 129q-253 -162 -534 -162q-59 0 -113.5 7t-115.5 28.5t-105 56t-73 95t-29 139.5zM223 293q0 -48 21 -84t50.5 -56t69 -32t70 -15.5t60.5 -3.5q81 0 163.5 16.5t159.5 48 t119.5 51.5t101.5 52v322q-104 -10 -175.5 -18t-156 -19.5t-141 -23.5t-116.5 -28.5t-97.5 -36.5t-69 -45.5t-45.5 -57.5t-14 -70zM379 1516h233l219 -291h-149z" />
<glyph unicode="&#xe1;" d="M66 293q0 80 31 142.5t102.5 105t133 70.5t181.5 49t185.5 29.5t201.5 22.5q31 3 48 5l42.5 5t46.5 5v41q0 69 -52 116t-126.5 66t-165.5 19q-81 0 -150.5 -14t-111 -31t-82 -47t-55.5 -45.5t-39 -43.5l-125 86q29 36 46 55t66.5 57.5t101.5 60t141.5 39.5t195.5 18 q78 0 148.5 -9.5t140.5 -34t120 -62t81.5 -99.5t31.5 -141v-592q0 -58 19 -166h-166q-21 87 -21 129q-253 -162 -534 -162q-59 0 -113.5 7t-115.5 28.5t-105 56t-73 95t-29 139.5zM223 293q0 -48 21 -84t50.5 -56t69 -32t70 -15.5t60.5 -3.5q81 0 163.5 16.5t159.5 48 t119.5 51.5t101.5 52v322q-104 -10 -175.5 -18t-156 -19.5t-141 -23.5t-116.5 -28.5t-97.5 -36.5t-69 -45.5t-45.5 -57.5t-14 -70zM537 1225l219 291h233l-303 -291h-149z" />
<glyph unicode="&#xe2;" d="M66 293q0 80 31 142.5t102.5 105t133 70.5t181.5 49t185.5 29.5t201.5 22.5q31 3 48 5l42.5 5t46.5 5v41q0 69 -52 116t-126.5 66t-165.5 19q-81 0 -150.5 -14t-111 -31t-82 -47t-55.5 -45.5t-39 -43.5l-125 86q29 36 46 55t66.5 57.5t101.5 60t141.5 39.5t195.5 18 q78 0 148.5 -9.5t140.5 -34t120 -62t81.5 -99.5t31.5 -141v-592q0 -58 19 -166h-166q-21 87 -21 129q-253 -162 -534 -162q-59 0 -113.5 7t-115.5 28.5t-105 56t-73 95t-29 139.5zM223 293q0 -48 21 -84t50.5 -56t69 -32t70 -15.5t60.5 -3.5q81 0 163.5 16.5t159.5 48 t119.5 51.5t101.5 52v322q-104 -10 -175.5 -18t-156 -19.5t-141 -23.5t-116.5 -28.5t-97.5 -36.5t-69 -45.5t-45.5 -57.5t-14 -70zM362 1225l230 291h188l226 -291h-172l-148 192l-147 -192h-177z" />
<glyph unicode="&#xe3;" d="M66 293q0 80 31 142.5t102.5 105t133 70.5t181.5 49t185.5 29.5t201.5 22.5q31 3 48 5l42.5 5t46.5 5v41q0 69 -52 116t-126.5 66t-165.5 19q-81 0 -150.5 -14t-111 -31t-82 -47t-55.5 -45.5t-39 -43.5l-125 86q29 36 46 55t66.5 57.5t101.5 60t141.5 39.5t195.5 18 q78 0 148.5 -9.5t140.5 -34t120 -62t81.5 -99.5t31.5 -141v-592q0 -58 19 -166h-166q-21 87 -21 129q-253 -162 -534 -162q-59 0 -113.5 7t-115.5 28.5t-105 56t-73 95t-29 139.5zM223 293q0 -48 21 -84t50.5 -56t69 -32t70 -15.5t60.5 -3.5q81 0 163.5 16.5t159.5 48 t119.5 51.5t101.5 52v322q-104 -10 -175.5 -18t-156 -19.5t-141 -23.5t-116.5 -28.5t-97.5 -36.5t-69 -45.5t-45.5 -57.5t-14 -70zM362 1245q1 6 6 28t8 34.5t11 35t16.5 37t23 32t32 28t43 17.5t55.5 7q59 0 143 -37q82 -38 117 -38q37 0 62 24.5t26 67.5h101 q-42 -221 -191 -221q-67 0 -149 40q-7 3 -28.5 13t-31 14t-25.5 8t-30 4q-36 0 -64 -21t-28 -73h-97z" />
<glyph unicode="&#xe4;" d="M66 293q0 80 31 142.5t102.5 105t133 70.5t181.5 49t185.5 29.5t201.5 22.5q31 3 48 5l42.5 5t46.5 5v41q0 69 -52 116t-126.5 66t-165.5 19q-81 0 -150.5 -14t-111 -31t-82 -47t-55.5 -45.5t-39 -43.5l-125 86q29 36 46 55t66.5 57.5t101.5 60t141.5 39.5t195.5 18 q78 0 148.5 -9.5t140.5 -34t120 -62t81.5 -99.5t31.5 -141v-592q0 -58 19 -166h-166q-21 87 -21 129q-253 -162 -534 -162q-59 0 -113.5 7t-115.5 28.5t-105 56t-73 95t-29 139.5zM223 293q0 -48 21 -84t50.5 -56t69 -32t70 -15.5t60.5 -3.5q81 0 163.5 16.5t159.5 48 t119.5 51.5t101.5 52v322q-104 -10 -175.5 -18t-156 -19.5t-141 -23.5t-116.5 -28.5t-97.5 -36.5t-69 -45.5t-45.5 -57.5t-14 -70zM406 1280v209h184v-209h-184zM778 1280v209h185v-209h-185z" />
<glyph unicode="&#xe5;" d="M66 293q0 80 31 142.5t102.5 105t133 70.5t181.5 49t185.5 29.5t201.5 22.5q31 3 48 5l42.5 5t46.5 5v41q0 69 -52 116t-126.5 66t-165.5 19q-81 0 -150.5 -14t-111 -31t-82 -47t-55.5 -45.5t-39 -43.5l-125 86q29 36 46 55t66.5 57.5t101.5 60t141.5 39.5t195.5 18 q78 0 148.5 -9.5t140.5 -34t120 -62t81.5 -99.5t31.5 -141v-592q0 -58 19 -166h-166q-21 87 -21 129q-253 -162 -534 -162q-59 0 -113.5 7t-115.5 28.5t-105 56t-73 95t-29 139.5zM223 293q0 -48 21 -84t50.5 -56t69 -32t70 -15.5t60.5 -3.5q81 0 163.5 16.5t159.5 48 t119.5 51.5t101.5 52v322q-104 -10 -175.5 -18t-156 -19.5t-141 -23.5t-116.5 -28.5t-97.5 -36.5t-69 -45.5t-45.5 -57.5t-14 -70zM438 1475q0 101 72.5 173t173.5 72t173.5 -72t72.5 -173q0 -100 -72 -173t-174 -73t-174 73t-72 173zM539 1475q0 -58 43 -102t102 -44 q58 0 101.5 43.5t43.5 102.5t-43.5 102t-101.5 43q-59 0 -102 -43.5t-43 -101.5z" />
<glyph unicode="&#xe6;" horiz-adv-x="2048" d="M66 285q0 56 16.5 105t43 86t70.5 68.5t88 54t108 42t117.5 31.5t129.5 23.5t130.5 17.5t133.5 14v47q0 94 -75 141.5t-212 47.5q-71 0 -133 -17.5t-104 -45.5t-69 -54t-44 -53l-133 90q15 21 34 42.5t62.5 56t93 59.5t128 44t165.5 19q67 0 123 -8t97 -24t70 -31.5 t54.5 -40.5t37.5 -40t30 -40q30 32 47 49.5t57 47t78.5 45.5t99 29t130.5 13q111 0 206.5 -35.5t171.5 -106t120 -188.5t44 -270h-919q0 -77 22.5 -142.5t60.5 -111t88 -78t105.5 -48t112.5 -15.5q59 0 110 13.5t85 30t72 50t57 55t55 64.5l127 -95q-37 -46 -62.5 -74 t-75.5 -68t-100.5 -62t-129 -39t-171.5 -17q-72 0 -135 16t-116.5 48.5t-88 60t-80.5 70.5q-243 -195 -546 -195q-91 0 -161.5 21t-112 54t-68 77t-36 84t-9.5 82zM231 281q0 -79 63.5 -125.5t168.5 -46.5q110 0 226 43t214 108v334q-672 -53 -672 -313zM1069 645h741 q0 25 -12 62t-41.5 82.5t-70.5 83.5t-107.5 64t-144.5 26q-78 1 -143.5 -25.5t-105 -65.5t-67 -85.5t-38.5 -82.5t-11 -59z" />
<glyph unicode="&#xe7;" d="M66 539q0 135 49 243.5t133.5 178t195 106.5t236.5 37q386 0 559 -293l-143 -82q-20 33 -36 55t-53.5 59.5t-78 60.5t-106.5 41t-142 18q-68 0 -131.5 -15.5t-122 -50t-101.5 -84.5t-68.5 -125t-25.5 -166q0 -177 133 -295t330 -118q143 0 249.5 54t186.5 191l144 -80 q-36 -63 -79.5 -112.5t-106.5 -92.5t-151 -69t-196 -31l-71 -92l4 -4q24 8 59 8q97 0 137.5 -44.5t40.5 -112.5q0 -72 -66.5 -133.5t-187.5 -61.5q-78 0 -190 41l35 96q86 -31 133 -31q49 0 83 20.5t34 63.5q0 39 -26 60.5t-60 21.5q-37 0 -93 -16l-36 39l108 147 q-264 12 -421.5 172t-157.5 396z" />
<glyph unicode="&#xe8;" d="M66 541q0 166 77.5 295.5t210 198.5t297.5 69q132 0 245 -35.5t202 -106t139 -188.5t47 -272h-1053q6 -77 39.5 -146.5t90 -125t141.5 -88.5t186 -33q57 0 108 8t86.5 17.5t72 30.5t55.5 33.5t46.5 41t35.5 38.5t32 39l129 -94q-80 -85 -105 -106q-124 -110 -309 -138 q-76 -12 -167 -12q-133 0 -246.5 44t-192 120t-123 182t-44.5 228zM238 643h866q-26 139 -140.5 229.5t-297.5 90.5q-178 0 -285 -83.5t-143 -236.5zM379 1516h233l219 -291h-149z" />
<glyph unicode="&#xe9;" d="M66 541q0 166 77.5 295.5t210 198.5t297.5 69q132 0 245 -35.5t202 -106t139 -188.5t47 -272h-1053q6 -77 39.5 -146.5t90 -125t141.5 -88.5t186 -33q57 0 108 8t86.5 17.5t72 30.5t55.5 33.5t46.5 41t35.5 38.5t32 39l129 -94q-80 -85 -105 -106q-124 -110 -309 -138 q-76 -12 -167 -12q-133 0 -246.5 44t-192 120t-123 182t-44.5 228zM238 643h866q-26 139 -140.5 229.5t-297.5 90.5q-178 0 -285 -83.5t-143 -236.5zM537 1225l219 291h233l-303 -291h-149z" />
<glyph unicode="&#xea;" d="M66 541q0 166 77.5 295.5t210 198.5t297.5 69q132 0 245 -35.5t202 -106t139 -188.5t47 -272h-1053q6 -77 39.5 -146.5t90 -125t141.5 -88.5t186 -33q57 0 108 8t86.5 17.5t72 30.5t55.5 33.5t46.5 41t35.5 38.5t32 39l129 -94q-80 -85 -105 -106q-124 -110 -309 -138 q-76 -12 -167 -12q-133 0 -246.5 44t-192 120t-123 182t-44.5 228zM238 643h866q-26 139 -140.5 229.5t-297.5 90.5q-178 0 -285 -83.5t-143 -236.5zM362 1225l230 291h188l226 -291h-172l-148 192l-147 -192h-177z" />
<glyph unicode="&#xeb;" d="M66 541q0 166 77.5 295.5t210 198.5t297.5 69q132 0 245 -35.5t202 -106t139 -188.5t47 -272h-1053q6 -77 39.5 -146.5t90 -125t141.5 -88.5t186 -33q57 0 108 8t86.5 17.5t72 30.5t55.5 33.5t46.5 41t35.5 38.5t32 39l129 -94q-80 -85 -105 -106q-124 -110 -309 -138 q-76 -12 -167 -12q-133 0 -246.5 44t-192 120t-123 182t-44.5 228zM238 643h866q-26 139 -140.5 229.5t-297.5 90.5q-178 0 -285 -83.5t-143 -236.5zM406 1280v209h184v-209h-184zM778 1280v209h185v-209h-185z" />
<glyph unicode="&#xec;" horiz-adv-x="456" d="M-76 1516h234l219 -291h-150zM145 0v1071h166v-1071h-166z" />
<glyph unicode="&#xed;" horiz-adv-x="456" d="M82 1225l219 291h234l-304 -291h-149zM145 0v1071h166v-1071h-166z" />
<glyph unicode="&#xee;" horiz-adv-x="456" d="M-92 1225l229 291h189l225 -291h-172l-148 192l-147 -192h-176zM145 0v1071h166v-1071h-166z" />
<glyph unicode="&#xef;" horiz-adv-x="456" d="M-49 1280v209h184v-209h-184zM145 0v1071h166v-1071h-166zM324 1280v209h184v-209h-184z" />
<glyph unicode="&#xf0;" d="M66 555q0 113 43.5 214t119.5 175t187.5 117t240.5 43q185 0 338 -100h4q-132 158 -327 276l-264 -123l-82 74l231 108q-100 50 -215 82l94 105q142 -41 277 -113l239 113l84 -74l-217 -102q219 -144 350 -347.5t131 -447.5q0 -279 -168.5 -433.5t-449.5 -154.5 q-137 0 -250 39t-194.5 112.5t-126.5 185t-45 251.5zM231 535q0 -194 121 -310t330 -116q210 0 331.5 116t121.5 310q0 77 -26 150t-77.5 136.5t-142 102.5t-207.5 39q-116 0 -206 -39t-141.5 -102.5t-77.5 -136.5t-26 -150z" />
<glyph unicode="&#xf1;" d="M154 0v1071h165v-156q218 189 451 189q34 0 66.5 -2.5t79 -12t85 -26t79 -46.5t68.5 -70.5t46 -102t18 -137.5v-707h-165v674q1 73 -19 127.5t-50 84.5t-72.5 48t-78.5 23.5t-77 5.5q-124 0 -234.5 -62t-196.5 -153v-748h-165zM362 1245q1 6 6 28t8 34.5t11 35t16.5 37 t23 32t32 28t43 17.5t55.5 7q59 0 143 -37q82 -38 117 -38q37 0 62 24.5t26 67.5h101q-42 -221 -191 -221q-67 0 -149 40q-7 3 -28.5 13t-31 14t-25.5 8t-30 4q-36 0 -64 -21t-28 -73h-97z" />
<glyph unicode="&#xf2;" d="M66 555q0 153 75 277t217 198t326 74t325.5 -74t216 -198t74.5 -277q0 -140 -45 -251.5t-126.5 -185t-194.5 -112.5t-250 -39t-250.5 39t-195.5 112.5t-127 185t-45 251.5zM231 535q0 -193 122 -309.5t331 -116.5t330 116t121 310q0 77 -26 150t-77.5 136.5t-141.5 102.5 t-206 39t-206.5 -39t-142.5 -102.5t-78 -136.5t-26 -150zM379 1516h233l219 -291h-149z" />
<glyph unicode="&#xf3;" d="M66 555q0 153 75 277t217 198t326 74t325.5 -74t216 -198t74.5 -277q0 -140 -45 -251.5t-126.5 -185t-194.5 -112.5t-250 -39t-250.5 39t-195.5 112.5t-127 185t-45 251.5zM231 535q0 -193 122 -309.5t331 -116.5t330 116t121 310q0 77 -26 150t-77.5 136.5t-141.5 102.5 t-206 39t-206.5 -39t-142.5 -102.5t-78 -136.5t-26 -150zM537 1225l219 291h233l-303 -291h-149z" />
<glyph unicode="&#xf4;" d="M66 555q0 153 75 277t217 198t326 74t325.5 -74t216 -198t74.5 -277q0 -140 -45 -251.5t-126.5 -185t-194.5 -112.5t-250 -39t-250.5 39t-195.5 112.5t-127 185t-45 251.5zM231 535q0 -193 122 -309.5t331 -116.5t330 116t121 310q0 77 -26 150t-77.5 136.5t-141.5 102.5 t-206 39t-206.5 -39t-142.5 -102.5t-78 -136.5t-26 -150zM362 1225l230 291h188l226 -291h-172l-148 192l-147 -192h-177z" />
<glyph unicode="&#xf5;" d="M66 555q0 153 75 277t217 198t326 74t325.5 -74t216 -198t74.5 -277q0 -140 -45 -251.5t-126.5 -185t-194.5 -112.5t-250 -39t-250.5 39t-195.5 112.5t-127 185t-45 251.5zM231 535q0 -193 122 -309.5t331 -116.5t330 116t121 310q0 77 -26 150t-77.5 136.5t-141.5 102.5 t-206 39t-206.5 -39t-142.5 -102.5t-78 -136.5t-26 -150zM362 1245q1 6 6 28t8 34.5t11 35t16.5 37t23 32t32 28t43 17.5t55.5 7q59 0 143 -37q82 -38 117 -38q37 0 62 24.5t26 67.5h101q-42 -221 -191 -221q-67 0 -149 40q-7 3 -28.5 13t-31 14t-25.5 8t-30 4 q-36 0 -64 -21t-28 -73h-97z" />
<glyph unicode="&#xf6;" d="M66 555q0 153 75 277t217 198t326 74t325.5 -74t216 -198t74.5 -277q0 -140 -45 -251.5t-126.5 -185t-194.5 -112.5t-250 -39t-250.5 39t-195.5 112.5t-127 185t-45 251.5zM231 535q0 -193 122 -309.5t331 -116.5t330 116t121 310q0 77 -26 150t-77.5 136.5t-141.5 102.5 t-206 39t-206.5 -39t-142.5 -102.5t-78 -136.5t-26 -150zM406 1280v209h184v-209h-184zM778 1280v209h185v-209h-185z" />
<glyph unicode="&#xf7;" horiz-adv-x="1228" d="M96 457v123h1037v-123h-1037zM492 96q0 51 35.5 87t86.5 36t87 -36t36 -87t-36 -87t-87 -36t-86.5 36t-35.5 87zM492 940q0 51 35.5 87t86.5 36t87 -36t36 -87t-36 -87t-87 -36t-86.5 36t-35.5 87z" />
<glyph unicode="&#xf8;" d="M-43 -145l264 280q-155 155 -155 420q0 153 75 277t217 198t326 74q208 0 360 -92l185 196h160l-252 -268q163 -154 163 -385q0 -140 -45 -251.5t-126.5 -185t-194.5 -112.5t-250 -39q-217 0 -369 94l-192 -206h-166zM231 535q0 -172 99 -283l606 645q-101 66 -252 66 q-116 0 -206.5 -39t-142.5 -102.5t-78 -136.5t-26 -150zM422 174q106 -65 262 -65q209 0 330 116t121 310q0 170 -107 288z" />
<glyph unicode="&#xf9;" d="M154 365v706h165v-674q-1 -73 19 -127.5t49.5 -84t72.5 -48t79 -23.5t77 -5q124 0 234.5 62t196.5 153v747h165v-1071h-165v156q-218 -189 -451 -189q-34 0 -66.5 2.5t-78.5 12.5t-85 26t-79.5 46.5t-68.5 71t-46 102t-18 137.5zM379 1516h233l219 -291h-149z" />
<glyph unicode="&#xfa;" d="M154 365v706h165v-674q-1 -73 19 -127.5t49.5 -84t72.5 -48t79 -23.5t77 -5q124 0 234.5 62t196.5 153v747h165v-1071h-165v156q-218 -189 -451 -189q-34 0 -66.5 2.5t-78.5 12.5t-85 26t-79.5 46.5t-68.5 71t-46 102t-18 137.5zM537 1225l219 291h233l-303 -291h-149z " />
<glyph unicode="&#xfb;" d="M154 365v706h165v-674q-1 -73 19 -127.5t49.5 -84t72.5 -48t79 -23.5t77 -5q124 0 234.5 62t196.5 153v747h165v-1071h-165v156q-218 -189 -451 -189q-34 0 -66.5 2.5t-78.5 12.5t-85 26t-79.5 46.5t-68.5 71t-46 102t-18 137.5zM362 1225l230 291h188l226 -291h-172 l-148 192l-147 -192h-177z" />
<glyph unicode="&#xfc;" d="M154 365v706h165v-674q-1 -73 19 -127.5t49.5 -84t72.5 -48t79 -23.5t77 -5q124 0 234.5 62t196.5 153v747h165v-1071h-165v156q-218 -189 -451 -189q-34 0 -66.5 2.5t-78.5 12.5t-85 26t-79.5 46.5t-68.5 71t-46 102t-18 137.5zM406 1280v209h184v-209h-184zM778 1280 v209h185v-209h-185z" />
<glyph unicode="&#xfd;" d="M49 1071h180l459 -864l438 864h181l-627 -1208q-125 -240 -375 -240q-93 0 -205 33v151q68 -32 193 -32q98 0 166.5 58t140.5 208zM537 1225l219 291h233l-303 -291h-149z" />
<glyph unicode="&#xfe;" horiz-adv-x="1478" d="M154 -377v1866h165v-580q66 53 111.5 84t106.5 59t130.5 40t159.5 12q119 0 219 -35t166.5 -91.5t113 -130.5t67 -150t20.5 -152q0 -78 -19 -155.5t-65.5 -155t-114.5 -136t-175.5 -95t-239.5 -36.5q-106 0 -193 24.5t-144 58t-143 97.5v-524h-165zM319 319 q42 -43 84 -76.5t99.5 -66t130 -50t155.5 -17.5q69 0 133 14t124 47.5t104.5 82.5t71 125.5t26.5 170.5q0 83 -32 158t-90 132t-146.5 90.5t-194.5 33.5q-125 0 -252.5 -68t-212.5 -160v-416z" />
<glyph unicode="&#xff;" d="M49 1071h180l459 -864l438 864h181l-627 -1208q-125 -240 -375 -240q-93 0 -205 33v151q68 -32 193 -32q98 0 166.5 58t140.5 208zM406 1280v209h184v-209h-184zM778 1280v209h185v-209h-185z" />
<glyph unicode="&#x152;" horiz-adv-x="2048" d="M6 733q0 90 14.5 177t44 175.5t81.5 163t121.5 132.5t169 91t218.5 33q101 0 265 -8t268 -8h809v-160h-783v-479h607v-160h-607v-530h809v-160h-954q-55 0 -199 -8t-202 -8q-144 0 -258.5 41t-189 110t-123.5 166.5t-70 204t-21 227.5zM190 729q0 -141 28.5 -247.5 t90 -185.5t165 -120t247.5 -41q71 0 123.5 8.5t86.5 26.5t55 39.5t31.5 56t13.5 66t3 78.5v645q0 63 -3 101t-15 76t-33 57.5t-59 36t-92 22.5t-132 6q-113 0 -202 -34.5t-146 -92.5t-94 -139.5t-52.5 -169.5t-15.5 -189z" />
<glyph unicode="&#x153;" horiz-adv-x="2048" d="M57 543q0 255 139.5 408t381.5 153q61 0 116 -10t95.5 -24t78.5 -38t61.5 -42.5t49 -47t36.5 -43t27 -37.5q21 31 36.5 51.5t56 60.5t82 65t106.5 45t137 20q114 0 207.5 -35t154.5 -94t101.5 -137t56 -162t11.5 -172h-858q2 -90 28 -161t64 -113.5t86 -71t91.5 -39 t84.5 -10.5t79 8.5t66 19.5t57.5 32.5t46.5 35.5t39.5 41t30 37l25.5 34l133 -94q-41 -51 -71 -83t-76 -68.5t-93.5 -57t-115 -34t-148.5 -13.5q-80 0 -147 20.5t-116.5 59t-83 77t-66.5 89.5q-149 -246 -486 -246q-227 0 -365.5 152t-138.5 424zM223 528q0 -185 97.5 -302 t273.5 -117q126 0 211.5 56t123.5 148t38 215q0 101 -23.5 179.5t-60.5 125.5t-89 77.5t-102 41.5t-106 11q-53 0 -101 -11t-97.5 -41t-84.5 -77t-57.5 -125.5t-22.5 -180.5zM1137 645h682q-10 104 -62 178t-124.5 107t-157.5 33q-81 0 -146.5 -28t-105.5 -74.5t-62 -101.5 t-24 -114z" />
<glyph unicode="&#x178;" horiz-adv-x="1818" d="M51 1489h236l622 -727l623 727h235l-768 -887v-602h-180v602zM631 1642v209h184v-209h-184zM1004 1642v209h184v-209h-184z" />
<glyph unicode="&#x2c6;" horiz-adv-x="454" d="M-94 1225l229 291h189l225 -291h-172l-148 192l-147 -192h-176z" />
<glyph unicode="&#x2dc;" horiz-adv-x="454" d="M-94 1245q2 6 6.5 27.5t7.5 35t10.5 35.5t16 36.5t23.5 32t32 28t42.5 17.5t55.5 7q60 0 144 -37q82 -38 116 -38q37 0 62.5 24.5t26.5 67.5h100q-42 -221 -191 -221q-67 0 -149 40q-7 3 -28.5 13t-31 14t-25.5 8t-30 4q-36 0 -64 -21t-28 -73h-96z" />
<glyph unicode="&#x2000;" horiz-adv-x="1041" />
<glyph unicode="&#x2001;" horiz-adv-x="2083" />
<glyph unicode="&#x2002;" horiz-adv-x="1041" />
<glyph unicode="&#x2003;" horiz-adv-x="2083" />
<glyph unicode="&#x2004;" horiz-adv-x="694" />
<glyph unicode="&#x2005;" horiz-adv-x="520" />
<glyph unicode="&#x2006;" horiz-adv-x="347" />
<glyph unicode="&#x2007;" horiz-adv-x="347" />
<glyph unicode="&#x2008;" horiz-adv-x="260" />
<glyph unicode="&#x2009;" horiz-adv-x="416" />
<glyph unicode="&#x200a;" horiz-adv-x="115" />
<glyph unicode="&#x2010;" horiz-adv-x="681" d="M63 471v152h555v-152h-555z" />
<glyph unicode="&#x2011;" horiz-adv-x="681" d="M63 471v152h555v-152h-555z" />
<glyph unicode="&#x2012;" horiz-adv-x="681" d="M63 471v152h555v-152h-555z" />
<glyph unicode="&#x2013;" horiz-adv-x="1024" d="M0 492v110h1024v-110h-1024z" />
<glyph unicode="&#x2014;" horiz-adv-x="2048" d="M0 492v110h2048v-110h-2048z" />
<glyph unicode="&#x2018;" horiz-adv-x="569" d="M170 965v223l129 301h100l-112 -311h94v-213h-211z" />
<glyph unicode="&#x2019;" horiz-adv-x="569" d="M170 965l113 311h-95v213h211v-223l-129 -301h-100z" />
<glyph unicode="&#x201a;" horiz-adv-x="569" d="M170 -311l113 311h-95v213h211v-223l-129 -301h-100z" />
<glyph unicode="&#x201c;" horiz-adv-x="1024" d="M180 965v223l129 301h101l-113 -311h84v-213h-201zM614 965v223l129 301h101l-113 -311h84v-213h-201z" />
<glyph unicode="&#x201d;" horiz-adv-x="1024" d="M180 965l113 311h-84v213h201v-223l-129 -301h-101zM614 965l113 311h-84v213h201v-223l-129 -301h-101z" />
<glyph unicode="&#x201e;" horiz-adv-x="1024" d="M180 -311l107 311h-82v213h201v-213l-127 -311h-99zM618 -311l107 311h-82v213h201v-213l-127 -311h-99z" />
<glyph unicode="&#x2022;" horiz-adv-x="1024" d="M139 745q0 154 109.5 262.5t263.5 108.5t263.5 -108.5t109.5 -262.5q0 -155 -109.5 -263.5t-263.5 -108.5t-263.5 108.5t-109.5 263.5z" />
<glyph unicode="&#x2026;" horiz-adv-x="2048" d="M238 0v238h211v-238h-211zM920 0v238h210v-238h-210zM1602 0v238h210v-238h-210z" />
<glyph unicode="&#x202f;" horiz-adv-x="416" />
<glyph unicode="&#x2039;" horiz-adv-x="681" d="M115 547l284 340h168l-280 -340l280 -340h-168z" />
<glyph unicode="&#x203a;" horiz-adv-x="681" d="M115 207l280 340l-280 340h168l284 -340l-284 -340h-168z" />
<glyph unicode="&#x205f;" horiz-adv-x="520" />
<glyph unicode="&#x20ac;" horiz-adv-x="1478" d="M74 559l41 127h123v10q0 9 -1 28t-1 28q0 29 4 86h-166l41 127h141q40 196 152 333q85 102 218 165t306 63q170 0 307 -58q88 -36 162 -102l-60 -178q-67 97 -174 143q-97 43 -235 43q-149 0 -250.5 -55.5t-159.5 -134.5q-43 -58 -67 -125q-19 -48 -27 -94h842l-41 -127 h-821q-7 -40 -7 -74q0 -10 1 -31t1 -31v-16h777l-43 -127h-719q26 -159 127 -274q150 -170 411 -170q58 0 117 12q81 16 146 55q90 52 155 135v-221q-80 -67 -207 -102q-128 -31 -219 -31q-153 0 -293.5 51.5t-234.5 159.5q-67 74 -110.5 176t-57.5 209h-178z" />
<glyph unicode="&#x2122;" horiz-adv-x="2048" d="M66 1378v111h655v-111h-266v-733h-123v733h-266zM872 645v844h181l266 -674l266 674h180v-844h-123v672h-4l-270 -672h-98l-271 672h-4v-672h-123z" />
<glyph unicode="&#xe000;" horiz-adv-x="1075" d="M0 0v1075h1075v-1075h-1075z" />
<glyph unicode="&#xfb01;" horiz-adv-x="1478" d="M27 907v142h270v81q0 396 381 396q153 0 278 -29v-147q-140 34 -229 34q-83 0 -137.5 -18.5t-81 -56.5t-36 -81.5t-9.5 -109.5v-69h440v-142h-440v-907h-166v907h-270zM1135 1298v191h190v-191h-190zM1149 0v1071h166v-1071h-166z" />
<glyph unicode="&#xfb02;" horiz-adv-x="1478" d="M27 907v142h270v81q0 396 381 396q153 0 278 -29v-147q-140 34 -229 34q-83 0 -137.5 -18.5t-81 -56.5t-36 -81.5t-9.5 -109.5v-69h440v-142h-440v-907h-166v907h-270zM1149 0v1489h166v-1489h-166z" />
</font>
</defs>
</svg>
